<?xml version="1.0" encoding="utf-8" standalone="no"?>
<!DOCTYPE svg PUBLIC "-//W3C//DTD SVG 1.1//EN"
  "http://www.w3.org/Graphics/SVG/1.1/DTD/svg11.dtd">
<!-- Created with matplotlib (https://matplotlib.org/) -->
<svg height="504pt" version="1.1" viewBox="0 0 720 504" width="720pt" xmlns="http://www.w3.org/2000/svg" xmlns:xlink="http://www.w3.org/1999/xlink">
 <defs>
  <style type="text/css">
*{stroke-linecap:butt;stroke-linejoin:round;}
  </style>
 </defs>
 <g id="figure_1">
  <g id="patch_1">
   <path d="M 0 504 
L 720 504 
L 720 0 
L 0 0 
z
" style="fill:#ffffff;"/>
  </g>
  <g id="axes_1">
   <g id="patch_2">
    <path d="M 90 441 
L 648 441 
L 648 60.48 
L 90 60.48 
z
" style="fill:#ffffff;"/>
   </g>
   <g id="patch_3">
    <path clip-path="url(#p24729bd778)" d="M 155.227321 441 
L 165.91598 441 
L 165.91598 411.272214 
L 155.227321 411.272214 
z
" style="fill:#ffa500;opacity:0.4;"/>
   </g>
   <g id="patch_4">
    <path clip-path="url(#p24729bd778)" d="M 165.915858 441 
L 176.604516 441 
L 176.604516 441 
L 165.915858 441 
z
" style="fill:#ffa500;opacity:0.4;"/>
   </g>
   <g id="patch_5">
    <path clip-path="url(#p24729bd778)" d="M 176.604638 441 
L 187.293174 441 
L 187.293174 441 
L 176.604638 441 
z
" style="fill:#ffa500;opacity:0.4;"/>
   </g>
   <g id="patch_6">
    <path clip-path="url(#p24729bd778)" d="M 187.293174 441 
L 197.981833 441 
L 197.981833 441 
L 187.293174 441 
z
" style="fill:#ffa500;opacity:0.4;"/>
   </g>
   <g id="patch_7">
    <path clip-path="url(#p24729bd778)" d="M 197.981711 441 
L 208.670369 441 
L 208.670369 407.733192 
L 197.981711 407.733192 
z
" style="fill:#ffa500;opacity:0.4;"/>
   </g>
   <g id="patch_8">
    <path clip-path="url(#p24729bd778)" d="M 208.670491 441 
L 219.359149 441 
L 219.359149 441 
L 208.670491 441 
z
" style="fill:#ffa500;opacity:0.4;"/>
   </g>
   <g id="patch_9">
    <path clip-path="url(#p24729bd778)" d="M 219.359027 441 
L 230.047686 441 
L 230.047686 404.901974 
L 219.359027 404.901974 
z
" style="fill:#ffa500;opacity:0.4;"/>
   </g>
   <g id="patch_10">
    <path clip-path="url(#p24729bd778)" d="M 230.047808 441 
L 240.736344 441 
L 240.736344 441 
L 230.047808 441 
z
" style="fill:#ffa500;opacity:0.4;"/>
   </g>
   <g id="patch_11">
    <path clip-path="url(#p24729bd778)" d="M 240.736344 441 
L 251.425002 441 
L 251.425002 441 
L 240.736344 441 
z
" style="fill:#ffa500;opacity:0.4;"/>
   </g>
   <g id="patch_12">
    <path clip-path="url(#p24729bd778)" d="M 251.42488 441 
L 262.113539 441 
L 262.113539 441 
L 251.42488 441 
z
" style="fill:#ffa500;opacity:0.4;"/>
   </g>
   <g id="patch_13">
    <path clip-path="url(#p24729bd778)" d="M 262.113661 441 
L 272.802319 441 
L 272.802319 418.350258 
L 262.113661 418.350258 
z
" style="fill:#ffa500;opacity:0.4;"/>
   </g>
   <g id="patch_14">
    <path clip-path="url(#p24729bd778)" d="M 272.802197 441 
L 283.490855 441 
L 283.490855 441 
L 272.802197 441 
z
" style="fill:#ffa500;opacity:0.4;"/>
   </g>
   <g id="patch_15">
    <path clip-path="url(#p24729bd778)" d="M 283.490977 441 
L 294.179514 441 
L 294.179514 441 
L 283.490977 441 
z
" style="fill:#ffa500;opacity:0.4;"/>
   </g>
   <g id="patch_16">
    <path clip-path="url(#p24729bd778)" d="M 294.179514 441 
L 304.868172 441 
L 304.868172 368.803949 
L 294.179514 368.803949 
z
" style="fill:#ffa500;opacity:0.4;"/>
   </g>
   <g id="patch_17">
    <path clip-path="url(#p24729bd778)" d="M 304.86805 441 
L 315.556708 441 
L 315.556708 409.148801 
L 304.86805 409.148801 
z
" style="fill:#ffa500;opacity:0.4;"/>
   </g>
   <g id="patch_18">
    <path clip-path="url(#p24729bd778)" d="M 315.55683 441 
L 326.245489 441 
L 326.245489 441 
L 315.55683 441 
z
" style="fill:#ffa500;opacity:0.4;"/>
   </g>
   <g id="patch_19">
    <path clip-path="url(#p24729bd778)" d="M 326.245367 441 
L 336.934025 441 
L 336.934025 441 
L 326.245367 441 
z
" style="fill:#ffa500;opacity:0.4;"/>
   </g>
   <g id="patch_20">
    <path clip-path="url(#p24729bd778)" d="M 336.934147 441 
L 347.622683 441 
L 347.622683 373.05 
L 336.934147 373.05 
z
" style="fill:#ffa500;opacity:0.4;"/>
   </g>
   <g id="patch_21">
    <path clip-path="url(#p24729bd778)" d="M 347.622683 441 
L 358.311342 441 
L 358.311342 404.901974 
L 347.622683 404.901974 
z
" style="fill:#ffa500;opacity:0.4;"/>
   </g>
   <g id="patch_22">
    <path clip-path="url(#p24729bd778)" d="M 358.31122 441 
L 368.999878 441 
L 368.999878 243.522566 
L 358.31122 243.522566 
z
" style="fill:#ffa500;opacity:0.4;"/>
   </g>
   <g id="patch_23">
    <path clip-path="url(#p24729bd778)" d="M 369 441 
L 379.688658 441 
L 379.688658 369.511753 
L 369 369.511753 
z
" style="fill:#ffa500;opacity:0.4;"/>
   </g>
   <g id="patch_24">
    <path clip-path="url(#p24729bd778)" d="M 379.688536 441 
L 390.377195 441 
L 390.377195 368.803949 
L 379.688536 368.803949 
z
" style="fill:#ffa500;opacity:0.4;"/>
   </g>
   <g id="patch_25">
    <path clip-path="url(#p24729bd778)" d="M 390.377317 441 
L 401.065853 441 
L 401.065853 121.06875 
L 390.377317 121.06875 
z
" style="fill:#ffa500;opacity:0.4;"/>
   </g>
   <g id="patch_26">
    <path clip-path="url(#p24729bd778)" d="M 401.065853 441 
L 411.754511 441 
L 411.754511 286.698636 
L 401.065853 286.698636 
z
" style="fill:#ffa500;opacity:0.4;"/>
   </g>
   <g id="patch_27">
    <path clip-path="url(#p24729bd778)" d="M 411.754389 441 
L 422.443048 441 
L 422.443048 298.731311 
L 411.754389 298.731311 
z
" style="fill:#ffa500;opacity:0.4;"/>
   </g>
   <g id="patch_28">
    <path clip-path="url(#p24729bd778)" d="M 422.44317 441 
L 433.131828 441 
L 433.131828 325.627879 
L 422.44317 325.627879 
z
" style="fill:#ffa500;opacity:0.4;"/>
   </g>
   <g id="patch_29">
    <path clip-path="url(#p24729bd778)" d="M 433.131706 441 
L 443.820364 441 
L 443.820364 219.457215 
L 433.131706 219.457215 
z
" style="fill:#ffa500;opacity:0.4;"/>
   </g>
   <g id="patch_30">
    <path clip-path="url(#p24729bd778)" d="M 443.820486 441 
L 454.509023 441 
L 454.509023 78.6 
L 443.820486 78.6 
z
" style="fill:#ffa500;opacity:0.4;"/>
   </g>
   <g id="patch_31">
    <path clip-path="url(#p24729bd778)" d="M 454.509023 441 
L 465.197681 441 
L 465.197681 241.399152 
L 454.509023 241.399152 
z
" style="fill:#ffa500;opacity:0.4;"/>
   </g>
   <g id="patch_32">
    <path clip-path="url(#p24729bd778)" d="M 465.197559 441 
L 475.886217 441 
L 475.886217 191.145038 
L 465.197559 191.145038 
z
" style="fill:#ffa500;opacity:0.4;"/>
   </g>
   <g id="patch_33">
    <path clip-path="url(#p24729bd778)" d="M 475.886339 441 
L 486.574998 441 
L 486.574998 269.003525 
L 475.886339 269.003525 
z
" style="fill:#ffa500;opacity:0.4;"/>
   </g>
   <g id="patch_34">
    <path clip-path="url(#p24729bd778)" d="M 486.574876 441 
L 497.263534 441 
L 497.263534 162.832861 
L 486.574876 162.832861 
z
" style="fill:#ffa500;opacity:0.4;"/>
   </g>
   <g id="patch_35">
    <path clip-path="url(#p24729bd778)" d="M 497.263656 441 
L 507.952192 441 
L 507.952192 247.059375 
L 497.263656 247.059375 
z
" style="fill:#ffa500;opacity:0.4;"/>
   </g>
   <g id="patch_36">
    <path clip-path="url(#p24729bd778)" d="M 507.952192 441 
L 518.640851 441 
L 518.640851 373.75858 
L 507.952192 373.75858 
z
" style="fill:#ffa500;opacity:0.4;"/>
   </g>
   <g id="patch_37">
    <path clip-path="url(#p24729bd778)" d="M 518.640729 441 
L 529.329387 441 
L 529.329387 363.849318 
L 518.640729 363.849318 
z
" style="fill:#ffa500;opacity:0.4;"/>
   </g>
   <g id="patch_38">
    <path clip-path="url(#p24729bd778)" d="M 529.329509 441 
L 540.018167 441 
L 540.018167 332.705923 
L 529.329509 332.705923 
z
" style="fill:#ffa500;opacity:0.4;"/>
   </g>
   <g id="patch_39">
    <path clip-path="url(#p24729bd778)" d="M 540.018045 441 
L 550.706704 441 
L 550.706704 367.38834 
L 540.018045 367.38834 
z
" style="fill:#ffa500;opacity:0.4;"/>
   </g>
   <g id="patch_40">
    <path clip-path="url(#p24729bd778)" d="M 550.706826 441 
L 561.395362 441 
L 561.395362 410.564062 
L 550.706826 410.564062 
z
" style="fill:#ffa500;opacity:0.4;"/>
   </g>
   <g id="patch_41">
    <path clip-path="url(#p24729bd778)" d="M 561.395362 441 
L 572.08402 441 
L 572.08402 441 
L 561.395362 441 
z
" style="fill:#ffa500;opacity:0.4;"/>
   </g>
   <g id="patch_42">
    <path clip-path="url(#p24729bd778)" d="M 572.083898 441 
L 582.772557 441 
L 582.772557 339.076163 
L 572.083898 339.076163 
z
" style="fill:#ffa500;opacity:0.4;"/>
   </g>
   <g id="matplotlib.axis_1">
    <g id="xtick_1">
     <g id="line2d_1">
      <defs>
       <path d="M 0 0 
L 0 3.5 
" id="m9def0a1f3d" style="stroke:#000000;stroke-width:0.8;"/>
      </defs>
      <g>
       <use style="stroke:#000000;stroke-width:0.8;" x="116.045517" xlink:href="#m9def0a1f3d" y="441"/>
      </g>
     </g>
     <g id="text_1">
      <!-- 0.70 -->
      <defs>
       <path d="M 31.78125 66.40625 
Q 24.171875 66.40625 20.328125 58.90625 
Q 16.5 51.421875 16.5 36.375 
Q 16.5 21.390625 20.328125 13.890625 
Q 24.171875 6.390625 31.78125 6.390625 
Q 39.453125 6.390625 43.28125 13.890625 
Q 47.125 21.390625 47.125 36.375 
Q 47.125 51.421875 43.28125 58.90625 
Q 39.453125 66.40625 31.78125 66.40625 
z
M 31.78125 74.21875 
Q 44.046875 74.21875 50.515625 64.515625 
Q 56.984375 54.828125 56.984375 36.375 
Q 56.984375 17.96875 50.515625 8.265625 
Q 44.046875 -1.421875 31.78125 -1.421875 
Q 19.53125 -1.421875 13.0625 8.265625 
Q 6.59375 17.96875 6.59375 36.375 
Q 6.59375 54.828125 13.0625 64.515625 
Q 19.53125 74.21875 31.78125 74.21875 
z
" id="DejaVuSans-48"/>
       <path d="M 10.6875 12.40625 
L 21 12.40625 
L 21 0 
L 10.6875 0 
z
" id="DejaVuSans-46"/>
       <path d="M 8.203125 72.90625 
L 55.078125 72.90625 
L 55.078125 68.703125 
L 28.609375 0 
L 18.3125 0 
L 43.21875 64.59375 
L 8.203125 64.59375 
z
" id="DejaVuSans-55"/>
      </defs>
      <g transform="translate(104.912705 455.598437)scale(0.1 -0.1)">
       <use xlink:href="#DejaVuSans-48"/>
       <use x="63.623047" xlink:href="#DejaVuSans-46"/>
       <use x="95.410156" xlink:href="#DejaVuSans-55"/>
       <use x="159.033203" xlink:href="#DejaVuSans-48"/>
      </g>
     </g>
    </g>
    <g id="xtick_2">
     <g id="line2d_2">
      <g>
       <use style="stroke:#000000;stroke-width:0.8;" x="218.345613" xlink:href="#m9def0a1f3d" y="441"/>
      </g>
     </g>
     <g id="text_2">
      <!-- 0.75 -->
      <defs>
       <path d="M 10.796875 72.90625 
L 49.515625 72.90625 
L 49.515625 64.59375 
L 19.828125 64.59375 
L 19.828125 46.734375 
Q 21.96875 47.46875 24.109375 47.828125 
Q 26.265625 48.1875 28.421875 48.1875 
Q 40.625 48.1875 47.75 41.5 
Q 54.890625 34.8125 54.890625 23.390625 
Q 54.890625 11.625 47.5625 5.09375 
Q 40.234375 -1.421875 26.90625 -1.421875 
Q 22.3125 -1.421875 17.546875 -0.640625 
Q 12.796875 0.140625 7.71875 1.703125 
L 7.71875 11.625 
Q 12.109375 9.234375 16.796875 8.0625 
Q 21.484375 6.890625 26.703125 6.890625 
Q 35.15625 6.890625 40.078125 11.328125 
Q 45.015625 15.765625 45.015625 23.390625 
Q 45.015625 31 40.078125 35.4375 
Q 35.15625 39.890625 26.703125 39.890625 
Q 22.75 39.890625 18.8125 39.015625 
Q 14.890625 38.140625 10.796875 36.28125 
z
" id="DejaVuSans-53"/>
      </defs>
      <g transform="translate(207.2128 455.598437)scale(0.1 -0.1)">
       <use xlink:href="#DejaVuSans-48"/>
       <use x="63.623047" xlink:href="#DejaVuSans-46"/>
       <use x="95.410156" xlink:href="#DejaVuSans-55"/>
       <use x="159.033203" xlink:href="#DejaVuSans-53"/>
      </g>
     </g>
    </g>
    <g id="xtick_3">
     <g id="line2d_3">
      <g>
       <use style="stroke:#000000;stroke-width:0.8;" x="320.645708" xlink:href="#m9def0a1f3d" y="441"/>
      </g>
     </g>
     <g id="text_3">
      <!-- 0.80 -->
      <defs>
       <path d="M 31.78125 34.625 
Q 24.75 34.625 20.71875 30.859375 
Q 16.703125 27.09375 16.703125 20.515625 
Q 16.703125 13.921875 20.71875 10.15625 
Q 24.75 6.390625 31.78125 6.390625 
Q 38.8125 6.390625 42.859375 10.171875 
Q 46.921875 13.96875 46.921875 20.515625 
Q 46.921875 27.09375 42.890625 30.859375 
Q 38.875 34.625 31.78125 34.625 
z
M 21.921875 38.8125 
Q 15.578125 40.375 12.03125 44.71875 
Q 8.5 49.078125 8.5 55.328125 
Q 8.5 64.0625 14.71875 69.140625 
Q 20.953125 74.21875 31.78125 74.21875 
Q 42.671875 74.21875 48.875 69.140625 
Q 55.078125 64.0625 55.078125 55.328125 
Q 55.078125 49.078125 51.53125 44.71875 
Q 48 40.375 41.703125 38.8125 
Q 48.828125 37.15625 52.796875 32.3125 
Q 56.78125 27.484375 56.78125 20.515625 
Q 56.78125 9.90625 50.3125 4.234375 
Q 43.84375 -1.421875 31.78125 -1.421875 
Q 19.734375 -1.421875 13.25 4.234375 
Q 6.78125 9.90625 6.78125 20.515625 
Q 6.78125 27.484375 10.78125 32.3125 
Q 14.796875 37.15625 21.921875 38.8125 
z
M 18.3125 54.390625 
Q 18.3125 48.734375 21.84375 45.5625 
Q 25.390625 42.390625 31.78125 42.390625 
Q 38.140625 42.390625 41.71875 45.5625 
Q 45.3125 48.734375 45.3125 54.390625 
Q 45.3125 60.0625 41.71875 63.234375 
Q 38.140625 66.40625 31.78125 66.40625 
Q 25.390625 66.40625 21.84375 63.234375 
Q 18.3125 60.0625 18.3125 54.390625 
z
" id="DejaVuSans-56"/>
      </defs>
      <g transform="translate(309.512896 455.598437)scale(0.1 -0.1)">
       <use xlink:href="#DejaVuSans-48"/>
       <use x="63.623047" xlink:href="#DejaVuSans-46"/>
       <use x="95.410156" xlink:href="#DejaVuSans-56"/>
       <use x="159.033203" xlink:href="#DejaVuSans-48"/>
      </g>
     </g>
    </g>
    <g id="xtick_4">
     <g id="line2d_4">
      <g>
       <use style="stroke:#000000;stroke-width:0.8;" x="422.945804" xlink:href="#m9def0a1f3d" y="441"/>
      </g>
     </g>
     <g id="text_4">
      <!-- 0.85 -->
      <g transform="translate(411.812991 455.598437)scale(0.1 -0.1)">
       <use xlink:href="#DejaVuSans-48"/>
       <use x="63.623047" xlink:href="#DejaVuSans-46"/>
       <use x="95.410156" xlink:href="#DejaVuSans-56"/>
       <use x="159.033203" xlink:href="#DejaVuSans-53"/>
      </g>
     </g>
    </g>
    <g id="xtick_5">
     <g id="line2d_5">
      <g>
       <use style="stroke:#000000;stroke-width:0.8;" x="525.245899" xlink:href="#m9def0a1f3d" y="441"/>
      </g>
     </g>
     <g id="text_5">
      <!-- 0.90 -->
      <defs>
       <path d="M 10.984375 1.515625 
L 10.984375 10.5 
Q 14.703125 8.734375 18.5 7.8125 
Q 22.3125 6.890625 25.984375 6.890625 
Q 35.75 6.890625 40.890625 13.453125 
Q 46.046875 20.015625 46.78125 33.40625 
Q 43.953125 29.203125 39.59375 26.953125 
Q 35.25 24.703125 29.984375 24.703125 
Q 19.046875 24.703125 12.671875 31.3125 
Q 6.296875 37.9375 6.296875 49.421875 
Q 6.296875 60.640625 12.9375 67.421875 
Q 19.578125 74.21875 30.609375 74.21875 
Q 43.265625 74.21875 49.921875 64.515625 
Q 56.59375 54.828125 56.59375 36.375 
Q 56.59375 19.140625 48.40625 8.859375 
Q 40.234375 -1.421875 26.421875 -1.421875 
Q 22.703125 -1.421875 18.890625 -0.6875 
Q 15.09375 0.046875 10.984375 1.515625 
z
M 30.609375 32.421875 
Q 37.25 32.421875 41.125 36.953125 
Q 45.015625 41.5 45.015625 49.421875 
Q 45.015625 57.28125 41.125 61.84375 
Q 37.25 66.40625 30.609375 66.40625 
Q 23.96875 66.40625 20.09375 61.84375 
Q 16.21875 57.28125 16.21875 49.421875 
Q 16.21875 41.5 20.09375 36.953125 
Q 23.96875 32.421875 30.609375 32.421875 
z
" id="DejaVuSans-57"/>
      </defs>
      <g transform="translate(514.113087 455.598437)scale(0.1 -0.1)">
       <use xlink:href="#DejaVuSans-48"/>
       <use x="63.623047" xlink:href="#DejaVuSans-46"/>
       <use x="95.410156" xlink:href="#DejaVuSans-57"/>
       <use x="159.033203" xlink:href="#DejaVuSans-48"/>
      </g>
     </g>
    </g>
    <g id="xtick_6">
     <g id="line2d_6">
      <g>
       <use style="stroke:#000000;stroke-width:0.8;" x="627.545995" xlink:href="#m9def0a1f3d" y="441"/>
      </g>
     </g>
     <g id="text_6">
      <!-- 0.95 -->
      <g transform="translate(616.413182 455.598437)scale(0.1 -0.1)">
       <use xlink:href="#DejaVuSans-48"/>
       <use x="63.623047" xlink:href="#DejaVuSans-46"/>
       <use x="95.410156" xlink:href="#DejaVuSans-57"/>
       <use x="159.033203" xlink:href="#DejaVuSans-53"/>
      </g>
     </g>
    </g>
    <g id="text_7">
     <!-- Observed probability value -->
     <defs>
      <path d="M 39.40625 66.21875 
Q 28.65625 66.21875 22.328125 58.203125 
Q 16.015625 50.203125 16.015625 36.375 
Q 16.015625 22.609375 22.328125 14.59375 
Q 28.65625 6.59375 39.40625 6.59375 
Q 50.140625 6.59375 56.421875 14.59375 
Q 62.703125 22.609375 62.703125 36.375 
Q 62.703125 50.203125 56.421875 58.203125 
Q 50.140625 66.21875 39.40625 66.21875 
z
M 39.40625 74.21875 
Q 54.734375 74.21875 63.90625 63.9375 
Q 73.09375 53.65625 73.09375 36.375 
Q 73.09375 19.140625 63.90625 8.859375 
Q 54.734375 -1.421875 39.40625 -1.421875 
Q 24.03125 -1.421875 14.8125 8.828125 
Q 5.609375 19.09375 5.609375 36.375 
Q 5.609375 53.65625 14.8125 63.9375 
Q 24.03125 74.21875 39.40625 74.21875 
z
" id="DejaVuSans-79"/>
      <path d="M 48.6875 27.296875 
Q 48.6875 37.203125 44.609375 42.84375 
Q 40.53125 48.484375 33.40625 48.484375 
Q 26.265625 48.484375 22.1875 42.84375 
Q 18.109375 37.203125 18.109375 27.296875 
Q 18.109375 17.390625 22.1875 11.75 
Q 26.265625 6.109375 33.40625 6.109375 
Q 40.53125 6.109375 44.609375 11.75 
Q 48.6875 17.390625 48.6875 27.296875 
z
M 18.109375 46.390625 
Q 20.953125 51.265625 25.265625 53.625 
Q 29.59375 56 35.59375 56 
Q 45.5625 56 51.78125 48.09375 
Q 58.015625 40.1875 58.015625 27.296875 
Q 58.015625 14.40625 51.78125 6.484375 
Q 45.5625 -1.421875 35.59375 -1.421875 
Q 29.59375 -1.421875 25.265625 0.953125 
Q 20.953125 3.328125 18.109375 8.203125 
L 18.109375 0 
L 9.078125 0 
L 9.078125 75.984375 
L 18.109375 75.984375 
z
" id="DejaVuSans-98"/>
      <path d="M 44.28125 53.078125 
L 44.28125 44.578125 
Q 40.484375 46.53125 36.375 47.5 
Q 32.28125 48.484375 27.875 48.484375 
Q 21.1875 48.484375 17.84375 46.4375 
Q 14.5 44.390625 14.5 40.28125 
Q 14.5 37.15625 16.890625 35.375 
Q 19.28125 33.59375 26.515625 31.984375 
L 29.59375 31.296875 
Q 39.15625 29.25 43.1875 25.515625 
Q 47.21875 21.78125 47.21875 15.09375 
Q 47.21875 7.46875 41.1875 3.015625 
Q 35.15625 -1.421875 24.609375 -1.421875 
Q 20.21875 -1.421875 15.453125 -0.5625 
Q 10.6875 0.296875 5.421875 2 
L 5.421875 11.28125 
Q 10.40625 8.6875 15.234375 7.390625 
Q 20.0625 6.109375 24.8125 6.109375 
Q 31.15625 6.109375 34.5625 8.28125 
Q 37.984375 10.453125 37.984375 14.40625 
Q 37.984375 18.0625 35.515625 20.015625 
Q 33.0625 21.96875 24.703125 23.78125 
L 21.578125 24.515625 
Q 13.234375 26.265625 9.515625 29.90625 
Q 5.8125 33.546875 5.8125 39.890625 
Q 5.8125 47.609375 11.28125 51.796875 
Q 16.75 56 26.8125 56 
Q 31.78125 56 36.171875 55.265625 
Q 40.578125 54.546875 44.28125 53.078125 
z
" id="DejaVuSans-115"/>
      <path d="M 56.203125 29.59375 
L 56.203125 25.203125 
L 14.890625 25.203125 
Q 15.484375 15.921875 20.484375 11.0625 
Q 25.484375 6.203125 34.421875 6.203125 
Q 39.59375 6.203125 44.453125 7.46875 
Q 49.3125 8.734375 54.109375 11.28125 
L 54.109375 2.78125 
Q 49.265625 0.734375 44.1875 -0.34375 
Q 39.109375 -1.421875 33.890625 -1.421875 
Q 20.796875 -1.421875 13.15625 6.1875 
Q 5.515625 13.8125 5.515625 26.8125 
Q 5.515625 40.234375 12.765625 48.109375 
Q 20.015625 56 32.328125 56 
Q 43.359375 56 49.78125 48.890625 
Q 56.203125 41.796875 56.203125 29.59375 
z
M 47.21875 32.234375 
Q 47.125 39.59375 43.09375 43.984375 
Q 39.0625 48.390625 32.421875 48.390625 
Q 24.90625 48.390625 20.390625 44.140625 
Q 15.875 39.890625 15.1875 32.171875 
z
" id="DejaVuSans-101"/>
      <path d="M 41.109375 46.296875 
Q 39.59375 47.171875 37.8125 47.578125 
Q 36.03125 48 33.890625 48 
Q 26.265625 48 22.1875 43.046875 
Q 18.109375 38.09375 18.109375 28.8125 
L 18.109375 0 
L 9.078125 0 
L 9.078125 54.6875 
L 18.109375 54.6875 
L 18.109375 46.1875 
Q 20.953125 51.171875 25.484375 53.578125 
Q 30.03125 56 36.53125 56 
Q 37.453125 56 38.578125 55.875 
Q 39.703125 55.765625 41.0625 55.515625 
z
" id="DejaVuSans-114"/>
      <path d="M 2.984375 54.6875 
L 12.5 54.6875 
L 29.59375 8.796875 
L 46.6875 54.6875 
L 56.203125 54.6875 
L 35.6875 0 
L 23.484375 0 
z
" id="DejaVuSans-118"/>
      <path d="M 45.40625 46.390625 
L 45.40625 75.984375 
L 54.390625 75.984375 
L 54.390625 0 
L 45.40625 0 
L 45.40625 8.203125 
Q 42.578125 3.328125 38.25 0.953125 
Q 33.9375 -1.421875 27.875 -1.421875 
Q 17.96875 -1.421875 11.734375 6.484375 
Q 5.515625 14.40625 5.515625 27.296875 
Q 5.515625 40.1875 11.734375 48.09375 
Q 17.96875 56 27.875 56 
Q 33.9375 56 38.25 53.625 
Q 42.578125 51.265625 45.40625 46.390625 
z
M 14.796875 27.296875 
Q 14.796875 17.390625 18.875 11.75 
Q 22.953125 6.109375 30.078125 6.109375 
Q 37.203125 6.109375 41.296875 11.75 
Q 45.40625 17.390625 45.40625 27.296875 
Q 45.40625 37.203125 41.296875 42.84375 
Q 37.203125 48.484375 30.078125 48.484375 
Q 22.953125 48.484375 18.875 42.84375 
Q 14.796875 37.203125 14.796875 27.296875 
z
" id="DejaVuSans-100"/>
      <path id="DejaVuSans-32"/>
      <path d="M 18.109375 8.203125 
L 18.109375 -20.796875 
L 9.078125 -20.796875 
L 9.078125 54.6875 
L 18.109375 54.6875 
L 18.109375 46.390625 
Q 20.953125 51.265625 25.265625 53.625 
Q 29.59375 56 35.59375 56 
Q 45.5625 56 51.78125 48.09375 
Q 58.015625 40.1875 58.015625 27.296875 
Q 58.015625 14.40625 51.78125 6.484375 
Q 45.5625 -1.421875 35.59375 -1.421875 
Q 29.59375 -1.421875 25.265625 0.953125 
Q 20.953125 3.328125 18.109375 8.203125 
z
M 48.6875 27.296875 
Q 48.6875 37.203125 44.609375 42.84375 
Q 40.53125 48.484375 33.40625 48.484375 
Q 26.265625 48.484375 22.1875 42.84375 
Q 18.109375 37.203125 18.109375 27.296875 
Q 18.109375 17.390625 22.1875 11.75 
Q 26.265625 6.109375 33.40625 6.109375 
Q 40.53125 6.109375 44.609375 11.75 
Q 48.6875 17.390625 48.6875 27.296875 
z
" id="DejaVuSans-112"/>
      <path d="M 30.609375 48.390625 
Q 23.390625 48.390625 19.1875 42.75 
Q 14.984375 37.109375 14.984375 27.296875 
Q 14.984375 17.484375 19.15625 11.84375 
Q 23.34375 6.203125 30.609375 6.203125 
Q 37.796875 6.203125 41.984375 11.859375 
Q 46.1875 17.53125 46.1875 27.296875 
Q 46.1875 37.015625 41.984375 42.703125 
Q 37.796875 48.390625 30.609375 48.390625 
z
M 30.609375 56 
Q 42.328125 56 49.015625 48.375 
Q 55.71875 40.765625 55.71875 27.296875 
Q 55.71875 13.875 49.015625 6.21875 
Q 42.328125 -1.421875 30.609375 -1.421875 
Q 18.84375 -1.421875 12.171875 6.21875 
Q 5.515625 13.875 5.515625 27.296875 
Q 5.515625 40.765625 12.171875 48.375 
Q 18.84375 56 30.609375 56 
z
" id="DejaVuSans-111"/>
      <path d="M 34.28125 27.484375 
Q 23.390625 27.484375 19.1875 25 
Q 14.984375 22.515625 14.984375 16.5 
Q 14.984375 11.71875 18.140625 8.90625 
Q 21.296875 6.109375 26.703125 6.109375 
Q 34.1875 6.109375 38.703125 11.40625 
Q 43.21875 16.703125 43.21875 25.484375 
L 43.21875 27.484375 
z
M 52.203125 31.203125 
L 52.203125 0 
L 43.21875 0 
L 43.21875 8.296875 
Q 40.140625 3.328125 35.546875 0.953125 
Q 30.953125 -1.421875 24.3125 -1.421875 
Q 15.921875 -1.421875 10.953125 3.296875 
Q 6 8.015625 6 15.921875 
Q 6 25.140625 12.171875 29.828125 
Q 18.359375 34.515625 30.609375 34.515625 
L 43.21875 34.515625 
L 43.21875 35.40625 
Q 43.21875 41.609375 39.140625 45 
Q 35.0625 48.390625 27.6875 48.390625 
Q 23 48.390625 18.546875 47.265625 
Q 14.109375 46.140625 10.015625 43.890625 
L 10.015625 52.203125 
Q 14.9375 54.109375 19.578125 55.046875 
Q 24.21875 56 28.609375 56 
Q 40.484375 56 46.34375 49.84375 
Q 52.203125 43.703125 52.203125 31.203125 
z
" id="DejaVuSans-97"/>
      <path d="M 9.421875 54.6875 
L 18.40625 54.6875 
L 18.40625 0 
L 9.421875 0 
z
M 9.421875 75.984375 
L 18.40625 75.984375 
L 18.40625 64.59375 
L 9.421875 64.59375 
z
" id="DejaVuSans-105"/>
      <path d="M 9.421875 75.984375 
L 18.40625 75.984375 
L 18.40625 0 
L 9.421875 0 
z
" id="DejaVuSans-108"/>
      <path d="M 18.3125 70.21875 
L 18.3125 54.6875 
L 36.8125 54.6875 
L 36.8125 47.703125 
L 18.3125 47.703125 
L 18.3125 18.015625 
Q 18.3125 11.328125 20.140625 9.421875 
Q 21.96875 7.515625 27.59375 7.515625 
L 36.8125 7.515625 
L 36.8125 0 
L 27.59375 0 
Q 17.1875 0 13.234375 3.875 
Q 9.28125 7.765625 9.28125 18.015625 
L 9.28125 47.703125 
L 2.6875 47.703125 
L 2.6875 54.6875 
L 9.28125 54.6875 
L 9.28125 70.21875 
z
" id="DejaVuSans-116"/>
      <path d="M 32.171875 -5.078125 
Q 28.375 -14.84375 24.75 -17.8125 
Q 21.140625 -20.796875 15.09375 -20.796875 
L 7.90625 -20.796875 
L 7.90625 -13.28125 
L 13.1875 -13.28125 
Q 16.890625 -13.28125 18.9375 -11.515625 
Q 21 -9.765625 23.484375 -3.21875 
L 25.09375 0.875 
L 2.984375 54.6875 
L 12.5 54.6875 
L 29.59375 11.921875 
L 46.6875 54.6875 
L 56.203125 54.6875 
z
" id="DejaVuSans-121"/>
      <path d="M 8.5 21.578125 
L 8.5 54.6875 
L 17.484375 54.6875 
L 17.484375 21.921875 
Q 17.484375 14.15625 20.5 10.265625 
Q 23.53125 6.390625 29.59375 6.390625 
Q 36.859375 6.390625 41.078125 11.03125 
Q 45.3125 15.671875 45.3125 23.6875 
L 45.3125 54.6875 
L 54.296875 54.6875 
L 54.296875 0 
L 45.3125 0 
L 45.3125 8.40625 
Q 42.046875 3.421875 37.71875 1 
Q 33.40625 -1.421875 27.6875 -1.421875 
Q 18.265625 -1.421875 13.375 4.4375 
Q 8.5 10.296875 8.5 21.578125 
z
M 31.109375 56 
z
" id="DejaVuSans-117"/>
     </defs>
     <g transform="translate(301.320312 469.276563)scale(0.1 -0.1)">
      <use xlink:href="#DejaVuSans-79"/>
      <use x="78.710938" xlink:href="#DejaVuSans-98"/>
      <use x="142.1875" xlink:href="#DejaVuSans-115"/>
      <use x="194.287109" xlink:href="#DejaVuSans-101"/>
      <use x="255.810547" xlink:href="#DejaVuSans-114"/>
      <use x="296.923828" xlink:href="#DejaVuSans-118"/>
      <use x="356.103516" xlink:href="#DejaVuSans-101"/>
      <use x="417.626953" xlink:href="#DejaVuSans-100"/>
      <use x="481.103516" xlink:href="#DejaVuSans-32"/>
      <use x="512.890625" xlink:href="#DejaVuSans-112"/>
      <use x="576.367188" xlink:href="#DejaVuSans-114"/>
      <use x="617.449219" xlink:href="#DejaVuSans-111"/>
      <use x="678.630859" xlink:href="#DejaVuSans-98"/>
      <use x="742.107422" xlink:href="#DejaVuSans-97"/>
      <use x="803.386719" xlink:href="#DejaVuSans-98"/>
      <use x="866.863281" xlink:href="#DejaVuSans-105"/>
      <use x="894.646484" xlink:href="#DejaVuSans-108"/>
      <use x="922.429688" xlink:href="#DejaVuSans-105"/>
      <use x="950.212891" xlink:href="#DejaVuSans-116"/>
      <use x="989.421875" xlink:href="#DejaVuSans-121"/>
      <use x="1048.601562" xlink:href="#DejaVuSans-32"/>
      <use x="1080.388672" xlink:href="#DejaVuSans-118"/>
      <use x="1139.568359" xlink:href="#DejaVuSans-97"/>
      <use x="1200.847656" xlink:href="#DejaVuSans-108"/>
      <use x="1228.630859" xlink:href="#DejaVuSans-117"/>
      <use x="1292.009766" xlink:href="#DejaVuSans-101"/>
     </g>
    </g>
   </g>
   <g id="matplotlib.axis_2">
    <g id="ytick_1">
     <g id="line2d_7">
      <defs>
       <path d="M 0 0 
L -3.5 0 
" id="mf837488f37" style="stroke:#000000;stroke-width:0.8;"/>
      </defs>
      <g>
       <use style="stroke:#000000;stroke-width:0.8;" x="90" xlink:href="#mf837488f37" y="441"/>
      </g>
     </g>
     <g id="text_8">
      <!-- 0.0 -->
      <g transform="translate(67.096875 444.799219)scale(0.1 -0.1)">
       <use xlink:href="#DejaVuSans-48"/>
       <use x="63.623047" xlink:href="#DejaVuSans-46"/>
       <use x="95.410156" xlink:href="#DejaVuSans-48"/>
      </g>
     </g>
    </g>
    <g id="ytick_2">
     <g id="line2d_8">
      <g>
       <use style="stroke:#000000;stroke-width:0.8;" x="90" xlink:href="#mf837488f37" y="394.778882"/>
      </g>
     </g>
     <g id="text_9">
      <!-- 2.5 -->
      <defs>
       <path d="M 19.1875 8.296875 
L 53.609375 8.296875 
L 53.609375 0 
L 7.328125 0 
L 7.328125 8.296875 
Q 12.9375 14.109375 22.625 23.890625 
Q 32.328125 33.6875 34.8125 36.53125 
Q 39.546875 41.84375 41.421875 45.53125 
Q 43.3125 49.21875 43.3125 52.78125 
Q 43.3125 58.59375 39.234375 62.25 
Q 35.15625 65.921875 28.609375 65.921875 
Q 23.96875 65.921875 18.8125 64.3125 
Q 13.671875 62.703125 7.8125 59.421875 
L 7.8125 69.390625 
Q 13.765625 71.78125 18.9375 73 
Q 24.125 74.21875 28.421875 74.21875 
Q 39.75 74.21875 46.484375 68.546875 
Q 53.21875 62.890625 53.21875 53.421875 
Q 53.21875 48.921875 51.53125 44.890625 
Q 49.859375 40.875 45.40625 35.40625 
Q 44.1875 33.984375 37.640625 27.21875 
Q 31.109375 20.453125 19.1875 8.296875 
z
" id="DejaVuSans-50"/>
      </defs>
      <g transform="translate(67.096875 398.578101)scale(0.1 -0.1)">
       <use xlink:href="#DejaVuSans-50"/>
       <use x="63.623047" xlink:href="#DejaVuSans-46"/>
       <use x="95.410156" xlink:href="#DejaVuSans-53"/>
      </g>
     </g>
    </g>
    <g id="ytick_3">
     <g id="line2d_9">
      <g>
       <use style="stroke:#000000;stroke-width:0.8;" x="90" xlink:href="#mf837488f37" y="348.557764"/>
      </g>
     </g>
     <g id="text_10">
      <!-- 5.0 -->
      <g transform="translate(67.096875 352.356983)scale(0.1 -0.1)">
       <use xlink:href="#DejaVuSans-53"/>
       <use x="63.623047" xlink:href="#DejaVuSans-46"/>
       <use x="95.410156" xlink:href="#DejaVuSans-48"/>
      </g>
     </g>
    </g>
    <g id="ytick_4">
     <g id="line2d_10">
      <g>
       <use style="stroke:#000000;stroke-width:0.8;" x="90" xlink:href="#mf837488f37" y="302.336646"/>
      </g>
     </g>
     <g id="text_11">
      <!-- 7.5 -->
      <g transform="translate(67.096875 306.135865)scale(0.1 -0.1)">
       <use xlink:href="#DejaVuSans-55"/>
       <use x="63.623047" xlink:href="#DejaVuSans-46"/>
       <use x="95.410156" xlink:href="#DejaVuSans-53"/>
      </g>
     </g>
    </g>
    <g id="ytick_5">
     <g id="line2d_11">
      <g>
       <use style="stroke:#000000;stroke-width:0.8;" x="90" xlink:href="#mf837488f37" y="256.115528"/>
      </g>
     </g>
     <g id="text_12">
      <!-- 10.0 -->
      <defs>
       <path d="M 12.40625 8.296875 
L 28.515625 8.296875 
L 28.515625 63.921875 
L 10.984375 60.40625 
L 10.984375 69.390625 
L 28.421875 72.90625 
L 38.28125 72.90625 
L 38.28125 8.296875 
L 54.390625 8.296875 
L 54.390625 0 
L 12.40625 0 
z
" id="DejaVuSans-49"/>
      </defs>
      <g transform="translate(60.734375 259.914747)scale(0.1 -0.1)">
       <use xlink:href="#DejaVuSans-49"/>
       <use x="63.623047" xlink:href="#DejaVuSans-48"/>
       <use x="127.246094" xlink:href="#DejaVuSans-46"/>
       <use x="159.033203" xlink:href="#DejaVuSans-48"/>
      </g>
     </g>
    </g>
    <g id="ytick_6">
     <g id="line2d_12">
      <g>
       <use style="stroke:#000000;stroke-width:0.8;" x="90" xlink:href="#mf837488f37" y="209.89441"/>
      </g>
     </g>
     <g id="text_13">
      <!-- 12.5 -->
      <g transform="translate(60.734375 213.693629)scale(0.1 -0.1)">
       <use xlink:href="#DejaVuSans-49"/>
       <use x="63.623047" xlink:href="#DejaVuSans-50"/>
       <use x="127.246094" xlink:href="#DejaVuSans-46"/>
       <use x="159.033203" xlink:href="#DejaVuSans-53"/>
      </g>
     </g>
    </g>
    <g id="ytick_7">
     <g id="line2d_13">
      <g>
       <use style="stroke:#000000;stroke-width:0.8;" x="90" xlink:href="#mf837488f37" y="163.673292"/>
      </g>
     </g>
     <g id="text_14">
      <!-- 15.0 -->
      <g transform="translate(60.734375 167.472511)scale(0.1 -0.1)">
       <use xlink:href="#DejaVuSans-49"/>
       <use x="63.623047" xlink:href="#DejaVuSans-53"/>
       <use x="127.246094" xlink:href="#DejaVuSans-46"/>
       <use x="159.033203" xlink:href="#DejaVuSans-48"/>
      </g>
     </g>
    </g>
    <g id="ytick_8">
     <g id="line2d_14">
      <g>
       <use style="stroke:#000000;stroke-width:0.8;" x="90" xlink:href="#mf837488f37" y="117.452174"/>
      </g>
     </g>
     <g id="text_15">
      <!-- 17.5 -->
      <g transform="translate(60.734375 121.251393)scale(0.1 -0.1)">
       <use xlink:href="#DejaVuSans-49"/>
       <use x="63.623047" xlink:href="#DejaVuSans-55"/>
       <use x="127.246094" xlink:href="#DejaVuSans-46"/>
       <use x="159.033203" xlink:href="#DejaVuSans-53"/>
      </g>
     </g>
    </g>
    <g id="ytick_9">
     <g id="line2d_15">
      <g>
       <use style="stroke:#000000;stroke-width:0.8;" x="90" xlink:href="#mf837488f37" y="71.231056"/>
      </g>
     </g>
     <g id="text_16">
      <!-- 20.0 -->
      <g transform="translate(60.734375 75.030275)scale(0.1 -0.1)">
       <use xlink:href="#DejaVuSans-50"/>
       <use x="63.623047" xlink:href="#DejaVuSans-48"/>
       <use x="127.246094" xlink:href="#DejaVuSans-46"/>
       <use x="159.033203" xlink:href="#DejaVuSans-48"/>
      </g>
     </g>
    </g>
    <g id="text_17">
     <!-- Observed frequency -->
     <defs>
      <path d="M 37.109375 75.984375 
L 37.109375 68.5 
L 28.515625 68.5 
Q 23.6875 68.5 21.796875 66.546875 
Q 19.921875 64.59375 19.921875 59.515625 
L 19.921875 54.6875 
L 34.71875 54.6875 
L 34.71875 47.703125 
L 19.921875 47.703125 
L 19.921875 0 
L 10.890625 0 
L 10.890625 47.703125 
L 2.296875 47.703125 
L 2.296875 54.6875 
L 10.890625 54.6875 
L 10.890625 58.5 
Q 10.890625 67.625 15.140625 71.796875 
Q 19.390625 75.984375 28.609375 75.984375 
z
" id="DejaVuSans-102"/>
      <path d="M 14.796875 27.296875 
Q 14.796875 17.390625 18.875 11.75 
Q 22.953125 6.109375 30.078125 6.109375 
Q 37.203125 6.109375 41.296875 11.75 
Q 45.40625 17.390625 45.40625 27.296875 
Q 45.40625 37.203125 41.296875 42.84375 
Q 37.203125 48.484375 30.078125 48.484375 
Q 22.953125 48.484375 18.875 42.84375 
Q 14.796875 37.203125 14.796875 27.296875 
z
M 45.40625 8.203125 
Q 42.578125 3.328125 38.25 0.953125 
Q 33.9375 -1.421875 27.875 -1.421875 
Q 17.96875 -1.421875 11.734375 6.484375 
Q 5.515625 14.40625 5.515625 27.296875 
Q 5.515625 40.1875 11.734375 48.09375 
Q 17.96875 56 27.875 56 
Q 33.9375 56 38.25 53.625 
Q 42.578125 51.265625 45.40625 46.390625 
L 45.40625 54.6875 
L 54.390625 54.6875 
L 54.390625 -20.796875 
L 45.40625 -20.796875 
z
" id="DejaVuSans-113"/>
      <path d="M 54.890625 33.015625 
L 54.890625 0 
L 45.90625 0 
L 45.90625 32.71875 
Q 45.90625 40.484375 42.875 44.328125 
Q 39.84375 48.1875 33.796875 48.1875 
Q 26.515625 48.1875 22.3125 43.546875 
Q 18.109375 38.921875 18.109375 30.90625 
L 18.109375 0 
L 9.078125 0 
L 9.078125 54.6875 
L 18.109375 54.6875 
L 18.109375 46.1875 
Q 21.34375 51.125 25.703125 53.5625 
Q 30.078125 56 35.796875 56 
Q 45.21875 56 50.046875 50.171875 
Q 54.890625 44.34375 54.890625 33.015625 
z
" id="DejaVuSans-110"/>
      <path d="M 48.78125 52.59375 
L 48.78125 44.1875 
Q 44.96875 46.296875 41.140625 47.34375 
Q 37.3125 48.390625 33.40625 48.390625 
Q 24.65625 48.390625 19.8125 42.84375 
Q 14.984375 37.3125 14.984375 27.296875 
Q 14.984375 17.28125 19.8125 11.734375 
Q 24.65625 6.203125 33.40625 6.203125 
Q 37.3125 6.203125 41.140625 7.25 
Q 44.96875 8.296875 48.78125 10.40625 
L 48.78125 2.09375 
Q 45.015625 0.34375 40.984375 -0.53125 
Q 36.96875 -1.421875 32.421875 -1.421875 
Q 20.0625 -1.421875 12.78125 6.34375 
Q 5.515625 14.109375 5.515625 27.296875 
Q 5.515625 40.671875 12.859375 48.328125 
Q 20.21875 56 33.015625 56 
Q 37.15625 56 41.109375 55.140625 
Q 45.0625 54.296875 48.78125 52.59375 
z
" id="DejaVuSans-99"/>
     </defs>
     <g transform="translate(54.654687 301.573594)rotate(-90)scale(0.1 -0.1)">
      <use xlink:href="#DejaVuSans-79"/>
      <use x="78.710938" xlink:href="#DejaVuSans-98"/>
      <use x="142.1875" xlink:href="#DejaVuSans-115"/>
      <use x="194.287109" xlink:href="#DejaVuSans-101"/>
      <use x="255.810547" xlink:href="#DejaVuSans-114"/>
      <use x="296.923828" xlink:href="#DejaVuSans-118"/>
      <use x="356.103516" xlink:href="#DejaVuSans-101"/>
      <use x="417.626953" xlink:href="#DejaVuSans-100"/>
      <use x="481.103516" xlink:href="#DejaVuSans-32"/>
      <use x="512.890625" xlink:href="#DejaVuSans-102"/>
      <use x="548.095703" xlink:href="#DejaVuSans-114"/>
      <use x="589.177734" xlink:href="#DejaVuSans-101"/>
      <use x="650.701172" xlink:href="#DejaVuSans-113"/>
      <use x="714.177734" xlink:href="#DejaVuSans-117"/>
      <use x="777.556641" xlink:href="#DejaVuSans-101"/>
      <use x="839.080078" xlink:href="#DejaVuSans-110"/>
      <use x="902.458984" xlink:href="#DejaVuSans-99"/>
      <use x="957.439453" xlink:href="#DejaVuSans-121"/>
     </g>
    </g>
   </g>
   <g id="line2d_16">
    <path clip-path="url(#p24729bd778)" d="M 115.363636 440.820629 
L 119.35791 440.723103 
L 123.352183 440.451487 
L 127.346457 439.937362 
L 131.34073 439.098391 
L 135.335004 437.884873 
L 139.329277 436.335 
L 147.317824 433.011884 
L 151.312097 431.862272 
L 155.306371 431.432981 
L 159.300644 431.807193 
L 163.294918 432.833323 
L 167.289191 434.164206 
L 171.283465 435.366615 
L 175.277738 436.051263 
L 179.272011 435.97673 
L 183.266285 435.10387 
L 187.260558 433.595682 
L 195.249105 429.965043 
L 199.243379 428.486558 
L 203.237652 427.453415 
L 207.231926 426.82747 
L 211.226199 426.494115 
L 215.220472 426.385892 
L 219.214746 426.556311 
L 223.209019 427.149034 
L 227.203293 428.282095 
L 231.197566 429.927253 
L 239.186113 433.74199 
L 243.180387 435.192434 
L 247.17466 435.961207 
L 251.168933 435.974684 
L 255.163207 435.340602 
L 259.15748 434.280821 
L 267.146027 431.650914 
L 271.140301 430.083958 
L 275.134574 428.050285 
L 279.128848 425.262261 
L 283.123121 421.629082 
L 291.111668 413.358228 
L 295.105941 410.296039 
L 299.100215 409.034712 
L 303.094488 409.928947 
L 307.088762 412.724757 
L 315.077309 420.400175 
L 319.071582 422.934842 
L 323.065855 423.278121 
L 327.060129 420.942073 
L 331.054402 415.917895 
L 335.048676 408.571279 
L 339.042949 399.434577 
L 343.037223 388.992901 
L 347.031496 377.588974 
L 359.014316 341.352695 
L 363.00859 330.727203 
L 367.002863 321.752626 
L 370.997137 314.112392 
L 374.99141 306.740535 
L 378.985684 298.350287 
L 382.979957 288.269907 
L 386.97423 277.085232 
L 390.968504 266.643691 
L 394.962777 259.337514 
L 398.957051 257.011898 
L 402.951324 260.054418 
L 406.945598 267.098335 
L 410.939871 275.430251 
L 414.934145 281.865973 
L 418.928418 283.716304 
L 422.922691 279.515409 
L 426.916965 269.330738 
L 430.911238 254.625277 
L 438.899785 221.35753 
L 442.894059 207.605924 
L 446.888332 197.88418 
L 450.882606 192.588843 
L 454.876879 191.295046 
L 458.871152 193.129644 
L 462.865426 197.199476 
L 466.859699 202.87431 
L 470.853973 209.79736 
L 474.848246 217.676404 
L 482.836793 234.410518 
L 486.831067 242.219699 
L 494.819613 256.526268 
L 498.813887 264.189882 
L 502.80816 273.023532 
L 506.802434 283.148229 
L 518.785254 316.091974 
L 522.779528 326.082207 
L 526.773801 335.426117 
L 534.762348 353.657466 
L 542.750895 372.919976 
L 546.745168 382.565672 
L 550.739442 391.458816 
L 554.733715 398.853108 
L 558.727989 404.123896 
L 562.722262 407.030754 
L 566.716535 407.896947 
L 574.705082 407.282003 
L 578.699356 408.03858 
L 582.693629 410.472963 
L 586.687903 414.566592 
L 590.682176 419.75865 
L 594.67645 425.224956 
L 598.670723 430.198611 
L 602.664996 434.191202 
L 606.65927 437.052381 
L 610.653543 438.895553 
L 614.647817 439.966068 
L 618.64209 440.522829 
L 622.636364 440.767642 
L 622.636364 440.767642 
" style="fill:none;stroke:#ffa500;stroke-linecap:square;stroke-width:1.5;"/>
   </g>
   <g id="patch_43">
    <path d="M 90 441 
L 90 60.48 
" style="fill:none;stroke:#000000;stroke-linecap:square;stroke-linejoin:miter;stroke-width:0.8;"/>
   </g>
   <g id="patch_44">
    <path d="M 648 441 
L 648 60.48 
" style="fill:none;stroke:#000000;stroke-linecap:square;stroke-linejoin:miter;stroke-width:0.8;"/>
   </g>
   <g id="patch_45">
    <path d="M 90 441 
L 648 441 
" style="fill:none;stroke:#000000;stroke-linecap:square;stroke-linejoin:miter;stroke-width:0.8;"/>
   </g>
   <g id="patch_46">
    <path d="M 90 60.48 
L 648 60.48 
" style="fill:none;stroke:#000000;stroke-linecap:square;stroke-linejoin:miter;stroke-width:0.8;"/>
   </g>
  </g>
 </g>
 <defs>
  <clipPath id="p24729bd778">
   <rect height="380.52" width="558" x="90" y="60.48"/>
  </clipPath>
 </defs>
</svg>
