<?xml version="1.0" encoding="utf-8" standalone="no"?>
<!DOCTYPE svg PUBLIC "-//W3C//DTD SVG 1.1//EN"
  "http://www.w3.org/Graphics/SVG/1.1/DTD/svg11.dtd">
<!-- Created with matplotlib (https://matplotlib.org/) -->
<svg height="504pt" version="1.1" viewBox="0 0 720 504" width="720pt" xmlns="http://www.w3.org/2000/svg" xmlns:xlink="http://www.w3.org/1999/xlink">
 <defs>
  <style type="text/css">
*{stroke-linecap:butt;stroke-linejoin:round;}
  </style>
 </defs>
 <g id="figure_1">
  <g id="patch_1">
   <path d="M 0 504 
L 720 504 
L 720 0 
L 0 0 
z
" style="fill:#ffffff;"/>
  </g>
  <g id="axes_1">
   <g id="patch_2">
    <path d="M 90 441 
L 648 441 
L 648 60.48 
L 90 60.48 
z
" style="fill:#ffffff;"/>
   </g>
   <g id="patch_3">
    <path clip-path="url(#p7979e07f07)" d="M 456.668535 441 
L 457.215608 441 
L 457.215608 408.578529 
L 456.668535 408.578529 
z
" style="fill:#0000ff;opacity:0.4;"/>
   </g>
   <g id="patch_4">
    <path clip-path="url(#p7979e07f07)" d="M 457.215608 441 
L 457.762559 441 
L 457.762559 441 
L 457.215608 441 
z
" style="fill:#0000ff;opacity:0.4;"/>
   </g>
   <g id="patch_5">
    <path clip-path="url(#p7979e07f07)" d="M 457.762559 441 
L 458.309632 441 
L 458.309632 441 
L 457.762559 441 
z
" style="fill:#0000ff;opacity:0.4;"/>
   </g>
   <g id="patch_6">
    <path clip-path="url(#p7979e07f07)" d="M 458.309632 441 
L 458.856706 441 
L 458.856706 406.417097 
L 458.309632 406.417097 
z
" style="fill:#0000ff;opacity:0.4;"/>
   </g>
   <g id="patch_7">
    <path clip-path="url(#p7979e07f07)" d="M 458.856827 441 
L 459.403779 441 
L 459.403779 333.624971 
L 458.856827 333.624971 
z
" style="fill:#0000ff;opacity:0.4;"/>
   </g>
   <g id="patch_8">
    <path clip-path="url(#p7979e07f07)" d="M 459.403657 441 
L 459.95073 441 
L 459.95073 291.140755 
L 459.403657 291.140755 
z
" style="fill:#0000ff;opacity:0.4;"/>
   </g>
   <g id="patch_9">
    <path clip-path="url(#p7979e07f07)" d="M 459.95073 441 
L 460.497681 441 
L 460.497681 363.17112 
L 459.95073 363.17112 
z
" style="fill:#0000ff;opacity:0.4;"/>
   </g>
   <g id="patch_10">
    <path clip-path="url(#p7979e07f07)" d="M 460.497681 441 
L 461.044754 441 
L 461.044754 441 
L 460.497681 441 
z
" style="fill:#0000ff;opacity:0.4;"/>
   </g>
   <g id="patch_11">
    <path clip-path="url(#p7979e07f07)" d="M 461.044754 441 
L 461.591827 441 
L 461.591827 402.814712 
L 461.044754 402.814712 
z
" style="fill:#0000ff;opacity:0.4;"/>
   </g>
   <g id="patch_12">
    <path clip-path="url(#p7979e07f07)" d="M 461.591949 441 
L 462.138901 441 
L 462.138901 344.434538 
L 461.591949 344.434538 
z
" style="fill:#0000ff;opacity:0.4;"/>
   </g>
   <g id="patch_13">
    <path clip-path="url(#p7979e07f07)" d="M 462.138779 441 
L 462.685852 441 
L 462.685852 363.188469 
L 462.138779 363.188469 
z
" style="fill:#0000ff;opacity:0.4;"/>
   </g>
   <g id="patch_14">
    <path clip-path="url(#p7979e07f07)" d="M 462.685852 441 
L 463.232925 441 
L 463.232925 217.652087 
L 462.685852 217.652087 
z
" style="fill:#0000ff;opacity:0.4;"/>
   </g>
   <g id="patch_15">
    <path clip-path="url(#p7979e07f07)" d="M 463.232925 441 
L 463.779876 441 
L 463.779876 253.634178 
L 463.232925 253.634178 
z
" style="fill:#0000ff;opacity:0.4;"/>
   </g>
   <g id="patch_16">
    <path clip-path="url(#p7979e07f07)" d="M 463.779876 441 
L 464.326949 441 
L 464.326949 407.137575 
L 463.779876 407.137575 
z
" style="fill:#0000ff;opacity:0.4;"/>
   </g>
   <g id="patch_17">
    <path clip-path="url(#p7979e07f07)" d="M 464.326949 441 
L 464.874022 441 
L 464.874022 172.982505 
L 464.326949 172.982505 
z
" style="fill:#0000ff;opacity:0.4;"/>
   </g>
   <g id="patch_18">
    <path clip-path="url(#p7979e07f07)" d="M 464.874144 441 
L 465.421096 441 
L 465.421096 136.890857 
L 464.874144 136.890857 
z
" style="fill:#0000ff;opacity:0.4;"/>
   </g>
   <g id="patch_19">
    <path clip-path="url(#p7979e07f07)" d="M 465.420974 441 
L 465.968047 441 
L 465.968047 78.6 
L 465.420974 78.6 
z
" style="fill:#0000ff;opacity:0.4;"/>
   </g>
   <g id="patch_20">
    <path clip-path="url(#p7979e07f07)" d="M 465.968047 441 
L 466.514998 441 
L 466.514998 296.872444 
L 465.968047 296.872444 
z
" style="fill:#0000ff;opacity:0.4;"/>
   </g>
   <g id="patch_21">
    <path clip-path="url(#p7979e07f07)" d="M 466.514998 441 
L 467.062071 441 
L 467.062071 169.380119 
L 466.514998 169.380119 
z
" style="fill:#0000ff;opacity:0.4;"/>
   </g>
   <g id="patch_22">
    <path clip-path="url(#p7979e07f07)" d="M 467.062071 441 
L 467.609144 441 
L 467.609144 311.314115 
L 467.062071 311.314115 
z
" style="fill:#0000ff;opacity:0.4;"/>
   </g>
   <g id="patch_23">
    <path clip-path="url(#p7979e07f07)" d="M 467.609266 441 
L 468.156218 441 
L 468.156218 270.208846 
L 467.609266 270.208846 
z
" style="fill:#0000ff;opacity:0.4;"/>
   </g>
   <g id="patch_24">
    <path clip-path="url(#p7979e07f07)" d="M 468.156096 441 
L 468.703169 441 
L 468.703169 335.089861 
L 468.156096 335.089861 
z
" style="fill:#0000ff;opacity:0.4;"/>
   </g>
   <g id="patch_25">
    <path clip-path="url(#p7979e07f07)" d="M 468.703169 441 
L 469.250242 441 
L 469.250242 275.290258 
L 468.703169 275.290258 
z
" style="fill:#0000ff;opacity:0.4;"/>
   </g>
   <g id="patch_26">
    <path clip-path="url(#p7979e07f07)" d="M 469.250242 441 
L 469.797193 441 
L 469.797193 363.17112 
L 469.250242 363.17112 
z
" style="fill:#0000ff;opacity:0.4;"/>
   </g>
   <g id="patch_27">
    <path clip-path="url(#p7979e07f07)" d="M 469.797193 441 
L 470.344266 441 
L 470.344266 300.506958 
L 469.797193 300.506958 
z
" style="fill:#0000ff;opacity:0.4;"/>
   </g>
   <g id="patch_28">
    <path clip-path="url(#p7979e07f07)" d="M 470.344266 441 
L 470.891339 441 
L 470.891339 260.160239 
L 470.344266 260.160239 
z
" style="fill:#0000ff;opacity:0.4;"/>
   </g>
   <g id="patch_29">
    <path clip-path="url(#p7979e07f07)" d="M 470.891461 441 
L 471.438413 441 
L 471.438413 402.08556 
L 470.891461 402.08556 
z
" style="fill:#0000ff;opacity:0.4;"/>
   </g>
   <g id="patch_30">
    <path clip-path="url(#p7979e07f07)" d="M 471.438291 441 
L 471.985364 441 
L 471.985364 404.255666 
L 471.438291 404.255666 
z
" style="fill:#0000ff;opacity:0.4;"/>
   </g>
   <g id="patch_31">
    <path clip-path="url(#p7979e07f07)" d="M 471.985364 441 
L 472.532315 441 
L 472.532315 374.701324 
L 471.985364 374.701324 
z
" style="fill:#0000ff;opacity:0.4;"/>
   </g>
   <g id="patch_32">
    <path clip-path="url(#p7979e07f07)" d="M 472.532315 441 
L 473.079388 441 
L 473.079388 441 
L 472.532315 441 
z
" style="fill:#0000ff;opacity:0.4;"/>
   </g>
   <g id="patch_33">
    <path clip-path="url(#p7979e07f07)" d="M 473.079388 441 
L 473.626461 441 
L 473.626461 402.094235 
L 473.079388 402.094235 
z
" style="fill:#0000ff;opacity:0.4;"/>
   </g>
   <g id="patch_34">
    <path clip-path="url(#p7979e07f07)" d="M 473.626583 441 
L 474.173534 441 
L 474.173534 441 
L 473.626583 441 
z
" style="fill:#0000ff;opacity:0.4;"/>
   </g>
   <g id="patch_35">
    <path clip-path="url(#p7979e07f07)" d="M 474.173413 441 
L 474.720486 441 
L 474.720486 399.932803 
L 474.173413 399.932803 
z
" style="fill:#0000ff;opacity:0.4;"/>
   </g>
   <g id="patch_36">
    <path clip-path="url(#p7979e07f07)" d="M 155.227321 441 
L 165.91598 441 
L 165.91598 439.451213 
L 155.227321 439.451213 
z
" style="fill:#ffa500;opacity:0.4;"/>
   </g>
   <g id="patch_37">
    <path clip-path="url(#p7979e07f07)" d="M 165.915858 441 
L 176.604516 441 
L 176.604516 441 
L 165.915858 441 
z
" style="fill:#ffa500;opacity:0.4;"/>
   </g>
   <g id="patch_38">
    <path clip-path="url(#p7979e07f07)" d="M 176.604638 441 
L 187.293174 441 
L 187.293174 441 
L 176.604638 441 
z
" style="fill:#ffa500;opacity:0.4;"/>
   </g>
   <g id="patch_39">
    <path clip-path="url(#p7979e07f07)" d="M 187.293174 441 
L 197.981833 441 
L 197.981833 441 
L 187.293174 441 
z
" style="fill:#ffa500;opacity:0.4;"/>
   </g>
   <g id="patch_40">
    <path clip-path="url(#p7979e07f07)" d="M 197.981711 441 
L 208.670369 441 
L 208.670369 439.266834 
L 197.981711 439.266834 
z
" style="fill:#ffa500;opacity:0.4;"/>
   </g>
   <g id="patch_41">
    <path clip-path="url(#p7979e07f07)" d="M 208.670491 441 
L 219.359149 441 
L 219.359149 441 
L 208.670491 441 
z
" style="fill:#ffa500;opacity:0.4;"/>
   </g>
   <g id="patch_42">
    <path clip-path="url(#p7979e07f07)" d="M 219.359027 441 
L 230.047686 441 
L 230.047686 439.11933 
L 219.359027 439.11933 
z
" style="fill:#ffa500;opacity:0.4;"/>
   </g>
   <g id="patch_43">
    <path clip-path="url(#p7979e07f07)" d="M 230.047808 441 
L 240.736344 441 
L 240.736344 441 
L 230.047808 441 
z
" style="fill:#ffa500;opacity:0.4;"/>
   </g>
   <g id="patch_44">
    <path clip-path="url(#p7979e07f07)" d="M 240.736344 441 
L 251.425002 441 
L 251.425002 441 
L 240.736344 441 
z
" style="fill:#ffa500;opacity:0.4;"/>
   </g>
   <g id="patch_45">
    <path clip-path="url(#p7979e07f07)" d="M 251.42488 441 
L 262.113539 441 
L 262.113539 441 
L 251.42488 441 
z
" style="fill:#ffa500;opacity:0.4;"/>
   </g>
   <g id="patch_46">
    <path clip-path="url(#p7979e07f07)" d="M 262.113661 441 
L 272.802319 441 
L 272.802319 439.819972 
L 262.113661 439.819972 
z
" style="fill:#ffa500;opacity:0.4;"/>
   </g>
   <g id="patch_47">
    <path clip-path="url(#p7979e07f07)" d="M 272.802197 441 
L 283.490855 441 
L 283.490855 441 
L 272.802197 441 
z
" style="fill:#ffa500;opacity:0.4;"/>
   </g>
   <g id="patch_48">
    <path clip-path="url(#p7979e07f07)" d="M 283.490977 441 
L 294.179514 441 
L 294.179514 441 
L 283.490977 441 
z
" style="fill:#ffa500;opacity:0.4;"/>
   </g>
   <g id="patch_49">
    <path clip-path="url(#p7979e07f07)" d="M 294.179514 441 
L 304.868172 441 
L 304.868172 437.23866 
L 294.179514 437.23866 
z
" style="fill:#ffa500;opacity:0.4;"/>
   </g>
   <g id="patch_50">
    <path clip-path="url(#p7979e07f07)" d="M 304.86805 441 
L 315.556708 441 
L 315.556708 439.340585 
L 304.86805 439.340585 
z
" style="fill:#ffa500;opacity:0.4;"/>
   </g>
   <g id="patch_51">
    <path clip-path="url(#p7979e07f07)" d="M 315.55683 441 
L 326.245489 441 
L 326.245489 441 
L 315.55683 441 
z
" style="fill:#ffa500;opacity:0.4;"/>
   </g>
   <g id="patch_52">
    <path clip-path="url(#p7979e07f07)" d="M 326.245367 441 
L 336.934025 441 
L 336.934025 441 
L 326.245367 441 
z
" style="fill:#ffa500;opacity:0.4;"/>
   </g>
   <g id="patch_53">
    <path clip-path="url(#p7979e07f07)" d="M 336.934147 441 
L 347.622683 441 
L 347.622683 437.459875 
L 336.934147 437.459875 
z
" style="fill:#ffa500;opacity:0.4;"/>
   </g>
   <g id="patch_54">
    <path clip-path="url(#p7979e07f07)" d="M 347.622683 441 
L 358.311342 441 
L 358.311342 439.11933 
L 347.622683 439.11933 
z
" style="fill:#ffa500;opacity:0.4;"/>
   </g>
   <g id="patch_55">
    <path clip-path="url(#p7979e07f07)" d="M 358.31122 441 
L 368.999878 441 
L 368.999878 430.711629 
L 358.31122 430.711629 
z
" style="fill:#ffa500;opacity:0.4;"/>
   </g>
   <g id="patch_56">
    <path clip-path="url(#p7979e07f07)" d="M 369 441 
L 379.688658 441 
L 379.688658 437.275536 
L 369 437.275536 
z
" style="fill:#ffa500;opacity:0.4;"/>
   </g>
   <g id="patch_57">
    <path clip-path="url(#p7979e07f07)" d="M 379.688536 441 
L 390.377195 441 
L 390.377195 437.23866 
L 379.688536 437.23866 
z
" style="fill:#ffa500;opacity:0.4;"/>
   </g>
   <g id="patch_58">
    <path clip-path="url(#p7979e07f07)" d="M 390.377317 441 
L 401.065853 441 
L 401.065853 424.331911 
L 390.377317 424.331911 
z
" style="fill:#ffa500;opacity:0.4;"/>
   </g>
   <g id="patch_59">
    <path clip-path="url(#p7979e07f07)" d="M 401.065853 441 
L 411.754511 441 
L 411.754511 432.961058 
L 401.065853 432.961058 
z
" style="fill:#ffa500;opacity:0.4;"/>
   </g>
   <g id="patch_60">
    <path clip-path="url(#p7979e07f07)" d="M 411.754389 441 
L 422.443048 441 
L 422.443048 433.587948 
L 411.754389 433.587948 
z
" style="fill:#ffa500;opacity:0.4;"/>
   </g>
   <g id="patch_61">
    <path clip-path="url(#p7979e07f07)" d="M 422.44317 441 
L 433.131828 441 
L 433.131828 434.989231 
L 422.44317 434.989231 
z
" style="fill:#ffa500;opacity:0.4;"/>
   </g>
   <g id="patch_62">
    <path clip-path="url(#p7979e07f07)" d="M 433.131706 441 
L 443.820364 441 
L 443.820364 429.457849 
L 433.131706 429.457849 
z
" style="fill:#ffa500;opacity:0.4;"/>
   </g>
   <g id="patch_63">
    <path clip-path="url(#p7979e07f07)" d="M 443.820486 441 
L 454.509023 441 
L 454.509023 422.119333 
L 443.820486 422.119333 
z
" style="fill:#ffa500;opacity:0.4;"/>
   </g>
   <g id="patch_64">
    <path clip-path="url(#p7979e07f07)" d="M 454.509023 441 
L 465.197681 441 
L 465.197681 430.601001 
L 454.509023 430.601001 
z
" style="fill:#ffa500;opacity:0.4;"/>
   </g>
   <g id="patch_65">
    <path clip-path="url(#p7979e07f07)" d="M 465.197559 441 
L 475.886217 441 
L 475.886217 427.982814 
L 465.197559 427.982814 
z
" style="fill:#ffa500;opacity:0.4;"/>
   </g>
   <g id="patch_66">
    <path clip-path="url(#p7979e07f07)" d="M 475.886339 441 
L 486.574998 441 
L 486.574998 432.039161 
L 475.886339 432.039161 
z
" style="fill:#ffa500;opacity:0.4;"/>
   </g>
   <g id="patch_67">
    <path clip-path="url(#p7979e07f07)" d="M 486.574876 441 
L 497.263534 441 
L 497.263534 426.507778 
L 486.574876 426.507778 
z
" style="fill:#ffa500;opacity:0.4;"/>
   </g>
   <g id="patch_68">
    <path clip-path="url(#p7979e07f07)" d="M 497.263656 441 
L 507.952192 441 
L 507.952192 430.895893 
L 497.263656 430.895893 
z
" style="fill:#ffa500;opacity:0.4;"/>
   </g>
   <g id="patch_69">
    <path clip-path="url(#p7979e07f07)" d="M 507.952192 441 
L 518.640851 441 
L 518.640851 437.496791 
L 507.952192 437.496791 
z
" style="fill:#ffa500;opacity:0.4;"/>
   </g>
   <g id="patch_70">
    <path clip-path="url(#p7979e07f07)" d="M 518.640729 441 
L 529.329387 441 
L 529.329387 436.980529 
L 518.640729 436.980529 
z
" style="fill:#ffa500;opacity:0.4;"/>
   </g>
   <g id="patch_71">
    <path clip-path="url(#p7979e07f07)" d="M 529.329509 441 
L 540.018167 441 
L 540.018167 435.35799 
L 529.329509 435.35799 
z
" style="fill:#ffa500;opacity:0.4;"/>
   </g>
   <g id="patch_72">
    <path clip-path="url(#p7979e07f07)" d="M 540.018045 441 
L 550.706704 441 
L 550.706704 437.164908 
L 540.018045 437.164908 
z
" style="fill:#ffa500;opacity:0.4;"/>
   </g>
   <g id="patch_73">
    <path clip-path="url(#p7979e07f07)" d="M 550.706826 441 
L 561.395362 441 
L 561.395362 439.414319 
L 550.706826 439.414319 
z
" style="fill:#ffa500;opacity:0.4;"/>
   </g>
   <g id="patch_74">
    <path clip-path="url(#p7979e07f07)" d="M 561.395362 441 
L 572.08402 441 
L 572.08402 441 
L 561.395362 441 
z
" style="fill:#ffa500;opacity:0.4;"/>
   </g>
   <g id="patch_75">
    <path clip-path="url(#p7979e07f07)" d="M 572.083898 441 
L 582.772557 441 
L 582.772557 435.689873 
L 572.083898 435.689873 
z
" style="fill:#ffa500;opacity:0.4;"/>
   </g>
   <g id="matplotlib.axis_1">
    <g id="xtick_1">
     <g id="line2d_1">
      <defs>
       <path d="M 0 0 
L 0 3.5 
" id="m07015b7704" style="stroke:#000000;stroke-width:0.8;"/>
      </defs>
      <g>
       <use style="stroke:#000000;stroke-width:0.8;" x="116.045517" xlink:href="#m07015b7704" y="441"/>
      </g>
     </g>
     <g id="text_1">
      <!-- 0.70 -->
      <defs>
       <path d="M 31.78125 66.40625 
Q 24.171875 66.40625 20.328125 58.90625 
Q 16.5 51.421875 16.5 36.375 
Q 16.5 21.390625 20.328125 13.890625 
Q 24.171875 6.390625 31.78125 6.390625 
Q 39.453125 6.390625 43.28125 13.890625 
Q 47.125 21.390625 47.125 36.375 
Q 47.125 51.421875 43.28125 58.90625 
Q 39.453125 66.40625 31.78125 66.40625 
z
M 31.78125 74.21875 
Q 44.046875 74.21875 50.515625 64.515625 
Q 56.984375 54.828125 56.984375 36.375 
Q 56.984375 17.96875 50.515625 8.265625 
Q 44.046875 -1.421875 31.78125 -1.421875 
Q 19.53125 -1.421875 13.0625 8.265625 
Q 6.59375 17.96875 6.59375 36.375 
Q 6.59375 54.828125 13.0625 64.515625 
Q 19.53125 74.21875 31.78125 74.21875 
z
" id="DejaVuSans-48"/>
       <path d="M 10.6875 12.40625 
L 21 12.40625 
L 21 0 
L 10.6875 0 
z
" id="DejaVuSans-46"/>
       <path d="M 8.203125 72.90625 
L 55.078125 72.90625 
L 55.078125 68.703125 
L 28.609375 0 
L 18.3125 0 
L 43.21875 64.59375 
L 8.203125 64.59375 
z
" id="DejaVuSans-55"/>
      </defs>
      <g transform="translate(104.912705 455.598437)scale(0.1 -0.1)">
       <use xlink:href="#DejaVuSans-48"/>
       <use x="63.623047" xlink:href="#DejaVuSans-46"/>
       <use x="95.410156" xlink:href="#DejaVuSans-55"/>
       <use x="159.033203" xlink:href="#DejaVuSans-48"/>
      </g>
     </g>
    </g>
    <g id="xtick_2">
     <g id="line2d_2">
      <g>
       <use style="stroke:#000000;stroke-width:0.8;" x="218.345613" xlink:href="#m07015b7704" y="441"/>
      </g>
     </g>
     <g id="text_2">
      <!-- 0.75 -->
      <defs>
       <path d="M 10.796875 72.90625 
L 49.515625 72.90625 
L 49.515625 64.59375 
L 19.828125 64.59375 
L 19.828125 46.734375 
Q 21.96875 47.46875 24.109375 47.828125 
Q 26.265625 48.1875 28.421875 48.1875 
Q 40.625 48.1875 47.75 41.5 
Q 54.890625 34.8125 54.890625 23.390625 
Q 54.890625 11.625 47.5625 5.09375 
Q 40.234375 -1.421875 26.90625 -1.421875 
Q 22.3125 -1.421875 17.546875 -0.640625 
Q 12.796875 0.140625 7.71875 1.703125 
L 7.71875 11.625 
Q 12.109375 9.234375 16.796875 8.0625 
Q 21.484375 6.890625 26.703125 6.890625 
Q 35.15625 6.890625 40.078125 11.328125 
Q 45.015625 15.765625 45.015625 23.390625 
Q 45.015625 31 40.078125 35.4375 
Q 35.15625 39.890625 26.703125 39.890625 
Q 22.75 39.890625 18.8125 39.015625 
Q 14.890625 38.140625 10.796875 36.28125 
z
" id="DejaVuSans-53"/>
      </defs>
      <g transform="translate(207.2128 455.598437)scale(0.1 -0.1)">
       <use xlink:href="#DejaVuSans-48"/>
       <use x="63.623047" xlink:href="#DejaVuSans-46"/>
       <use x="95.410156" xlink:href="#DejaVuSans-55"/>
       <use x="159.033203" xlink:href="#DejaVuSans-53"/>
      </g>
     </g>
    </g>
    <g id="xtick_3">
     <g id="line2d_3">
      <g>
       <use style="stroke:#000000;stroke-width:0.8;" x="320.645708" xlink:href="#m07015b7704" y="441"/>
      </g>
     </g>
     <g id="text_3">
      <!-- 0.80 -->
      <defs>
       <path d="M 31.78125 34.625 
Q 24.75 34.625 20.71875 30.859375 
Q 16.703125 27.09375 16.703125 20.515625 
Q 16.703125 13.921875 20.71875 10.15625 
Q 24.75 6.390625 31.78125 6.390625 
Q 38.8125 6.390625 42.859375 10.171875 
Q 46.921875 13.96875 46.921875 20.515625 
Q 46.921875 27.09375 42.890625 30.859375 
Q 38.875 34.625 31.78125 34.625 
z
M 21.921875 38.8125 
Q 15.578125 40.375 12.03125 44.71875 
Q 8.5 49.078125 8.5 55.328125 
Q 8.5 64.0625 14.71875 69.140625 
Q 20.953125 74.21875 31.78125 74.21875 
Q 42.671875 74.21875 48.875 69.140625 
Q 55.078125 64.0625 55.078125 55.328125 
Q 55.078125 49.078125 51.53125 44.71875 
Q 48 40.375 41.703125 38.8125 
Q 48.828125 37.15625 52.796875 32.3125 
Q 56.78125 27.484375 56.78125 20.515625 
Q 56.78125 9.90625 50.3125 4.234375 
Q 43.84375 -1.421875 31.78125 -1.421875 
Q 19.734375 -1.421875 13.25 4.234375 
Q 6.78125 9.90625 6.78125 20.515625 
Q 6.78125 27.484375 10.78125 32.3125 
Q 14.796875 37.15625 21.921875 38.8125 
z
M 18.3125 54.390625 
Q 18.3125 48.734375 21.84375 45.5625 
Q 25.390625 42.390625 31.78125 42.390625 
Q 38.140625 42.390625 41.71875 45.5625 
Q 45.3125 48.734375 45.3125 54.390625 
Q 45.3125 60.0625 41.71875 63.234375 
Q 38.140625 66.40625 31.78125 66.40625 
Q 25.390625 66.40625 21.84375 63.234375 
Q 18.3125 60.0625 18.3125 54.390625 
z
" id="DejaVuSans-56"/>
      </defs>
      <g transform="translate(309.512896 455.598437)scale(0.1 -0.1)">
       <use xlink:href="#DejaVuSans-48"/>
       <use x="63.623047" xlink:href="#DejaVuSans-46"/>
       <use x="95.410156" xlink:href="#DejaVuSans-56"/>
       <use x="159.033203" xlink:href="#DejaVuSans-48"/>
      </g>
     </g>
    </g>
    <g id="xtick_4">
     <g id="line2d_4">
      <g>
       <use style="stroke:#000000;stroke-width:0.8;" x="422.945804" xlink:href="#m07015b7704" y="441"/>
      </g>
     </g>
     <g id="text_4">
      <!-- 0.85 -->
      <g transform="translate(411.812991 455.598437)scale(0.1 -0.1)">
       <use xlink:href="#DejaVuSans-48"/>
       <use x="63.623047" xlink:href="#DejaVuSans-46"/>
       <use x="95.410156" xlink:href="#DejaVuSans-56"/>
       <use x="159.033203" xlink:href="#DejaVuSans-53"/>
      </g>
     </g>
    </g>
    <g id="xtick_5">
     <g id="line2d_5">
      <g>
       <use style="stroke:#000000;stroke-width:0.8;" x="525.245899" xlink:href="#m07015b7704" y="441"/>
      </g>
     </g>
     <g id="text_5">
      <!-- 0.90 -->
      <defs>
       <path d="M 10.984375 1.515625 
L 10.984375 10.5 
Q 14.703125 8.734375 18.5 7.8125 
Q 22.3125 6.890625 25.984375 6.890625 
Q 35.75 6.890625 40.890625 13.453125 
Q 46.046875 20.015625 46.78125 33.40625 
Q 43.953125 29.203125 39.59375 26.953125 
Q 35.25 24.703125 29.984375 24.703125 
Q 19.046875 24.703125 12.671875 31.3125 
Q 6.296875 37.9375 6.296875 49.421875 
Q 6.296875 60.640625 12.9375 67.421875 
Q 19.578125 74.21875 30.609375 74.21875 
Q 43.265625 74.21875 49.921875 64.515625 
Q 56.59375 54.828125 56.59375 36.375 
Q 56.59375 19.140625 48.40625 8.859375 
Q 40.234375 -1.421875 26.421875 -1.421875 
Q 22.703125 -1.421875 18.890625 -0.6875 
Q 15.09375 0.046875 10.984375 1.515625 
z
M 30.609375 32.421875 
Q 37.25 32.421875 41.125 36.953125 
Q 45.015625 41.5 45.015625 49.421875 
Q 45.015625 57.28125 41.125 61.84375 
Q 37.25 66.40625 30.609375 66.40625 
Q 23.96875 66.40625 20.09375 61.84375 
Q 16.21875 57.28125 16.21875 49.421875 
Q 16.21875 41.5 20.09375 36.953125 
Q 23.96875 32.421875 30.609375 32.421875 
z
" id="DejaVuSans-57"/>
      </defs>
      <g transform="translate(514.113087 455.598437)scale(0.1 -0.1)">
       <use xlink:href="#DejaVuSans-48"/>
       <use x="63.623047" xlink:href="#DejaVuSans-46"/>
       <use x="95.410156" xlink:href="#DejaVuSans-57"/>
       <use x="159.033203" xlink:href="#DejaVuSans-48"/>
      </g>
     </g>
    </g>
    <g id="xtick_6">
     <g id="line2d_6">
      <g>
       <use style="stroke:#000000;stroke-width:0.8;" x="627.545995" xlink:href="#m07015b7704" y="441"/>
      </g>
     </g>
     <g id="text_6">
      <!-- 0.95 -->
      <g transform="translate(616.413182 455.598437)scale(0.1 -0.1)">
       <use xlink:href="#DejaVuSans-48"/>
       <use x="63.623047" xlink:href="#DejaVuSans-46"/>
       <use x="95.410156" xlink:href="#DejaVuSans-57"/>
       <use x="159.033203" xlink:href="#DejaVuSans-53"/>
      </g>
     </g>
    </g>
    <g id="text_7">
     <!-- Observed probability value -->
     <defs>
      <path d="M 39.40625 66.21875 
Q 28.65625 66.21875 22.328125 58.203125 
Q 16.015625 50.203125 16.015625 36.375 
Q 16.015625 22.609375 22.328125 14.59375 
Q 28.65625 6.59375 39.40625 6.59375 
Q 50.140625 6.59375 56.421875 14.59375 
Q 62.703125 22.609375 62.703125 36.375 
Q 62.703125 50.203125 56.421875 58.203125 
Q 50.140625 66.21875 39.40625 66.21875 
z
M 39.40625 74.21875 
Q 54.734375 74.21875 63.90625 63.9375 
Q 73.09375 53.65625 73.09375 36.375 
Q 73.09375 19.140625 63.90625 8.859375 
Q 54.734375 -1.421875 39.40625 -1.421875 
Q 24.03125 -1.421875 14.8125 8.828125 
Q 5.609375 19.09375 5.609375 36.375 
Q 5.609375 53.65625 14.8125 63.9375 
Q 24.03125 74.21875 39.40625 74.21875 
z
" id="DejaVuSans-79"/>
      <path d="M 48.6875 27.296875 
Q 48.6875 37.203125 44.609375 42.84375 
Q 40.53125 48.484375 33.40625 48.484375 
Q 26.265625 48.484375 22.1875 42.84375 
Q 18.109375 37.203125 18.109375 27.296875 
Q 18.109375 17.390625 22.1875 11.75 
Q 26.265625 6.109375 33.40625 6.109375 
Q 40.53125 6.109375 44.609375 11.75 
Q 48.6875 17.390625 48.6875 27.296875 
z
M 18.109375 46.390625 
Q 20.953125 51.265625 25.265625 53.625 
Q 29.59375 56 35.59375 56 
Q 45.5625 56 51.78125 48.09375 
Q 58.015625 40.1875 58.015625 27.296875 
Q 58.015625 14.40625 51.78125 6.484375 
Q 45.5625 -1.421875 35.59375 -1.421875 
Q 29.59375 -1.421875 25.265625 0.953125 
Q 20.953125 3.328125 18.109375 8.203125 
L 18.109375 0 
L 9.078125 0 
L 9.078125 75.984375 
L 18.109375 75.984375 
z
" id="DejaVuSans-98"/>
      <path d="M 44.28125 53.078125 
L 44.28125 44.578125 
Q 40.484375 46.53125 36.375 47.5 
Q 32.28125 48.484375 27.875 48.484375 
Q 21.1875 48.484375 17.84375 46.4375 
Q 14.5 44.390625 14.5 40.28125 
Q 14.5 37.15625 16.890625 35.375 
Q 19.28125 33.59375 26.515625 31.984375 
L 29.59375 31.296875 
Q 39.15625 29.25 43.1875 25.515625 
Q 47.21875 21.78125 47.21875 15.09375 
Q 47.21875 7.46875 41.1875 3.015625 
Q 35.15625 -1.421875 24.609375 -1.421875 
Q 20.21875 -1.421875 15.453125 -0.5625 
Q 10.6875 0.296875 5.421875 2 
L 5.421875 11.28125 
Q 10.40625 8.6875 15.234375 7.390625 
Q 20.0625 6.109375 24.8125 6.109375 
Q 31.15625 6.109375 34.5625 8.28125 
Q 37.984375 10.453125 37.984375 14.40625 
Q 37.984375 18.0625 35.515625 20.015625 
Q 33.0625 21.96875 24.703125 23.78125 
L 21.578125 24.515625 
Q 13.234375 26.265625 9.515625 29.90625 
Q 5.8125 33.546875 5.8125 39.890625 
Q 5.8125 47.609375 11.28125 51.796875 
Q 16.75 56 26.8125 56 
Q 31.78125 56 36.171875 55.265625 
Q 40.578125 54.546875 44.28125 53.078125 
z
" id="DejaVuSans-115"/>
      <path d="M 56.203125 29.59375 
L 56.203125 25.203125 
L 14.890625 25.203125 
Q 15.484375 15.921875 20.484375 11.0625 
Q 25.484375 6.203125 34.421875 6.203125 
Q 39.59375 6.203125 44.453125 7.46875 
Q 49.3125 8.734375 54.109375 11.28125 
L 54.109375 2.78125 
Q 49.265625 0.734375 44.1875 -0.34375 
Q 39.109375 -1.421875 33.890625 -1.421875 
Q 20.796875 -1.421875 13.15625 6.1875 
Q 5.515625 13.8125 5.515625 26.8125 
Q 5.515625 40.234375 12.765625 48.109375 
Q 20.015625 56 32.328125 56 
Q 43.359375 56 49.78125 48.890625 
Q 56.203125 41.796875 56.203125 29.59375 
z
M 47.21875 32.234375 
Q 47.125 39.59375 43.09375 43.984375 
Q 39.0625 48.390625 32.421875 48.390625 
Q 24.90625 48.390625 20.390625 44.140625 
Q 15.875 39.890625 15.1875 32.171875 
z
" id="DejaVuSans-101"/>
      <path d="M 41.109375 46.296875 
Q 39.59375 47.171875 37.8125 47.578125 
Q 36.03125 48 33.890625 48 
Q 26.265625 48 22.1875 43.046875 
Q 18.109375 38.09375 18.109375 28.8125 
L 18.109375 0 
L 9.078125 0 
L 9.078125 54.6875 
L 18.109375 54.6875 
L 18.109375 46.1875 
Q 20.953125 51.171875 25.484375 53.578125 
Q 30.03125 56 36.53125 56 
Q 37.453125 56 38.578125 55.875 
Q 39.703125 55.765625 41.0625 55.515625 
z
" id="DejaVuSans-114"/>
      <path d="M 2.984375 54.6875 
L 12.5 54.6875 
L 29.59375 8.796875 
L 46.6875 54.6875 
L 56.203125 54.6875 
L 35.6875 0 
L 23.484375 0 
z
" id="DejaVuSans-118"/>
      <path d="M 45.40625 46.390625 
L 45.40625 75.984375 
L 54.390625 75.984375 
L 54.390625 0 
L 45.40625 0 
L 45.40625 8.203125 
Q 42.578125 3.328125 38.25 0.953125 
Q 33.9375 -1.421875 27.875 -1.421875 
Q 17.96875 -1.421875 11.734375 6.484375 
Q 5.515625 14.40625 5.515625 27.296875 
Q 5.515625 40.1875 11.734375 48.09375 
Q 17.96875 56 27.875 56 
Q 33.9375 56 38.25 53.625 
Q 42.578125 51.265625 45.40625 46.390625 
z
M 14.796875 27.296875 
Q 14.796875 17.390625 18.875 11.75 
Q 22.953125 6.109375 30.078125 6.109375 
Q 37.203125 6.109375 41.296875 11.75 
Q 45.40625 17.390625 45.40625 27.296875 
Q 45.40625 37.203125 41.296875 42.84375 
Q 37.203125 48.484375 30.078125 48.484375 
Q 22.953125 48.484375 18.875 42.84375 
Q 14.796875 37.203125 14.796875 27.296875 
z
" id="DejaVuSans-100"/>
      <path id="DejaVuSans-32"/>
      <path d="M 18.109375 8.203125 
L 18.109375 -20.796875 
L 9.078125 -20.796875 
L 9.078125 54.6875 
L 18.109375 54.6875 
L 18.109375 46.390625 
Q 20.953125 51.265625 25.265625 53.625 
Q 29.59375 56 35.59375 56 
Q 45.5625 56 51.78125 48.09375 
Q 58.015625 40.1875 58.015625 27.296875 
Q 58.015625 14.40625 51.78125 6.484375 
Q 45.5625 -1.421875 35.59375 -1.421875 
Q 29.59375 -1.421875 25.265625 0.953125 
Q 20.953125 3.328125 18.109375 8.203125 
z
M 48.6875 27.296875 
Q 48.6875 37.203125 44.609375 42.84375 
Q 40.53125 48.484375 33.40625 48.484375 
Q 26.265625 48.484375 22.1875 42.84375 
Q 18.109375 37.203125 18.109375 27.296875 
Q 18.109375 17.390625 22.1875 11.75 
Q 26.265625 6.109375 33.40625 6.109375 
Q 40.53125 6.109375 44.609375 11.75 
Q 48.6875 17.390625 48.6875 27.296875 
z
" id="DejaVuSans-112"/>
      <path d="M 30.609375 48.390625 
Q 23.390625 48.390625 19.1875 42.75 
Q 14.984375 37.109375 14.984375 27.296875 
Q 14.984375 17.484375 19.15625 11.84375 
Q 23.34375 6.203125 30.609375 6.203125 
Q 37.796875 6.203125 41.984375 11.859375 
Q 46.1875 17.53125 46.1875 27.296875 
Q 46.1875 37.015625 41.984375 42.703125 
Q 37.796875 48.390625 30.609375 48.390625 
z
M 30.609375 56 
Q 42.328125 56 49.015625 48.375 
Q 55.71875 40.765625 55.71875 27.296875 
Q 55.71875 13.875 49.015625 6.21875 
Q 42.328125 -1.421875 30.609375 -1.421875 
Q 18.84375 -1.421875 12.171875 6.21875 
Q 5.515625 13.875 5.515625 27.296875 
Q 5.515625 40.765625 12.171875 48.375 
Q 18.84375 56 30.609375 56 
z
" id="DejaVuSans-111"/>
      <path d="M 34.28125 27.484375 
Q 23.390625 27.484375 19.1875 25 
Q 14.984375 22.515625 14.984375 16.5 
Q 14.984375 11.71875 18.140625 8.90625 
Q 21.296875 6.109375 26.703125 6.109375 
Q 34.1875 6.109375 38.703125 11.40625 
Q 43.21875 16.703125 43.21875 25.484375 
L 43.21875 27.484375 
z
M 52.203125 31.203125 
L 52.203125 0 
L 43.21875 0 
L 43.21875 8.296875 
Q 40.140625 3.328125 35.546875 0.953125 
Q 30.953125 -1.421875 24.3125 -1.421875 
Q 15.921875 -1.421875 10.953125 3.296875 
Q 6 8.015625 6 15.921875 
Q 6 25.140625 12.171875 29.828125 
Q 18.359375 34.515625 30.609375 34.515625 
L 43.21875 34.515625 
L 43.21875 35.40625 
Q 43.21875 41.609375 39.140625 45 
Q 35.0625 48.390625 27.6875 48.390625 
Q 23 48.390625 18.546875 47.265625 
Q 14.109375 46.140625 10.015625 43.890625 
L 10.015625 52.203125 
Q 14.9375 54.109375 19.578125 55.046875 
Q 24.21875 56 28.609375 56 
Q 40.484375 56 46.34375 49.84375 
Q 52.203125 43.703125 52.203125 31.203125 
z
" id="DejaVuSans-97"/>
      <path d="M 9.421875 54.6875 
L 18.40625 54.6875 
L 18.40625 0 
L 9.421875 0 
z
M 9.421875 75.984375 
L 18.40625 75.984375 
L 18.40625 64.59375 
L 9.421875 64.59375 
z
" id="DejaVuSans-105"/>
      <path d="M 9.421875 75.984375 
L 18.40625 75.984375 
L 18.40625 0 
L 9.421875 0 
z
" id="DejaVuSans-108"/>
      <path d="M 18.3125 70.21875 
L 18.3125 54.6875 
L 36.8125 54.6875 
L 36.8125 47.703125 
L 18.3125 47.703125 
L 18.3125 18.015625 
Q 18.3125 11.328125 20.140625 9.421875 
Q 21.96875 7.515625 27.59375 7.515625 
L 36.8125 7.515625 
L 36.8125 0 
L 27.59375 0 
Q 17.1875 0 13.234375 3.875 
Q 9.28125 7.765625 9.28125 18.015625 
L 9.28125 47.703125 
L 2.6875 47.703125 
L 2.6875 54.6875 
L 9.28125 54.6875 
L 9.28125 70.21875 
z
" id="DejaVuSans-116"/>
      <path d="M 32.171875 -5.078125 
Q 28.375 -14.84375 24.75 -17.8125 
Q 21.140625 -20.796875 15.09375 -20.796875 
L 7.90625 -20.796875 
L 7.90625 -13.28125 
L 13.1875 -13.28125 
Q 16.890625 -13.28125 18.9375 -11.515625 
Q 21 -9.765625 23.484375 -3.21875 
L 25.09375 0.875 
L 2.984375 54.6875 
L 12.5 54.6875 
L 29.59375 11.921875 
L 46.6875 54.6875 
L 56.203125 54.6875 
z
" id="DejaVuSans-121"/>
      <path d="M 8.5 21.578125 
L 8.5 54.6875 
L 17.484375 54.6875 
L 17.484375 21.921875 
Q 17.484375 14.15625 20.5 10.265625 
Q 23.53125 6.390625 29.59375 6.390625 
Q 36.859375 6.390625 41.078125 11.03125 
Q 45.3125 15.671875 45.3125 23.6875 
L 45.3125 54.6875 
L 54.296875 54.6875 
L 54.296875 0 
L 45.3125 0 
L 45.3125 8.40625 
Q 42.046875 3.421875 37.71875 1 
Q 33.40625 -1.421875 27.6875 -1.421875 
Q 18.265625 -1.421875 13.375 4.4375 
Q 8.5 10.296875 8.5 21.578125 
z
M 31.109375 56 
z
" id="DejaVuSans-117"/>
     </defs>
     <g transform="translate(301.320312 469.276563)scale(0.1 -0.1)">
      <use xlink:href="#DejaVuSans-79"/>
      <use x="78.710938" xlink:href="#DejaVuSans-98"/>
      <use x="142.1875" xlink:href="#DejaVuSans-115"/>
      <use x="194.287109" xlink:href="#DejaVuSans-101"/>
      <use x="255.810547" xlink:href="#DejaVuSans-114"/>
      <use x="296.923828" xlink:href="#DejaVuSans-118"/>
      <use x="356.103516" xlink:href="#DejaVuSans-101"/>
      <use x="417.626953" xlink:href="#DejaVuSans-100"/>
      <use x="481.103516" xlink:href="#DejaVuSans-32"/>
      <use x="512.890625" xlink:href="#DejaVuSans-112"/>
      <use x="576.367188" xlink:href="#DejaVuSans-114"/>
      <use x="617.449219" xlink:href="#DejaVuSans-111"/>
      <use x="678.630859" xlink:href="#DejaVuSans-98"/>
      <use x="742.107422" xlink:href="#DejaVuSans-97"/>
      <use x="803.386719" xlink:href="#DejaVuSans-98"/>
      <use x="866.863281" xlink:href="#DejaVuSans-105"/>
      <use x="894.646484" xlink:href="#DejaVuSans-108"/>
      <use x="922.429688" xlink:href="#DejaVuSans-105"/>
      <use x="950.212891" xlink:href="#DejaVuSans-116"/>
      <use x="989.421875" xlink:href="#DejaVuSans-121"/>
      <use x="1048.601562" xlink:href="#DejaVuSans-32"/>
      <use x="1080.388672" xlink:href="#DejaVuSans-118"/>
      <use x="1139.568359" xlink:href="#DejaVuSans-97"/>
      <use x="1200.847656" xlink:href="#DejaVuSans-108"/>
      <use x="1228.630859" xlink:href="#DejaVuSans-117"/>
      <use x="1292.009766" xlink:href="#DejaVuSans-101"/>
     </g>
    </g>
   </g>
   <g id="matplotlib.axis_2">
    <g id="ytick_1">
     <g id="line2d_7">
      <defs>
       <path d="M 0 0 
L -3.5 0 
" id="md3cff7890a" style="stroke:#000000;stroke-width:0.8;"/>
      </defs>
      <g>
       <use style="stroke:#000000;stroke-width:0.8;" x="90" xlink:href="#md3cff7890a" y="441"/>
      </g>
     </g>
     <g id="text_8">
      <!-- 0 -->
      <g transform="translate(76.6375 444.799219)scale(0.1 -0.1)">
       <use xlink:href="#DejaVuSans-48"/>
      </g>
     </g>
    </g>
    <g id="ytick_2">
     <g id="line2d_8">
      <g>
       <use style="stroke:#000000;stroke-width:0.8;" x="90" xlink:href="#md3cff7890a" y="392.838546"/>
      </g>
     </g>
     <g id="text_9">
      <!-- 50 -->
      <g transform="translate(70.275 396.637765)scale(0.1 -0.1)">
       <use xlink:href="#DejaVuSans-53"/>
       <use x="63.623047" xlink:href="#DejaVuSans-48"/>
      </g>
     </g>
    </g>
    <g id="ytick_3">
     <g id="line2d_9">
      <g>
       <use style="stroke:#000000;stroke-width:0.8;" x="90" xlink:href="#md3cff7890a" y="344.677093"/>
      </g>
     </g>
     <g id="text_10">
      <!-- 100 -->
      <defs>
       <path d="M 12.40625 8.296875 
L 28.515625 8.296875 
L 28.515625 63.921875 
L 10.984375 60.40625 
L 10.984375 69.390625 
L 28.421875 72.90625 
L 38.28125 72.90625 
L 38.28125 8.296875 
L 54.390625 8.296875 
L 54.390625 0 
L 12.40625 0 
z
" id="DejaVuSans-49"/>
      </defs>
      <g transform="translate(63.9125 348.476312)scale(0.1 -0.1)">
       <use xlink:href="#DejaVuSans-49"/>
       <use x="63.623047" xlink:href="#DejaVuSans-48"/>
       <use x="127.246094" xlink:href="#DejaVuSans-48"/>
      </g>
     </g>
    </g>
    <g id="ytick_4">
     <g id="line2d_10">
      <g>
       <use style="stroke:#000000;stroke-width:0.8;" x="90" xlink:href="#md3cff7890a" y="296.515639"/>
      </g>
     </g>
     <g id="text_11">
      <!-- 150 -->
      <g transform="translate(63.9125 300.314858)scale(0.1 -0.1)">
       <use xlink:href="#DejaVuSans-49"/>
       <use x="63.623047" xlink:href="#DejaVuSans-53"/>
       <use x="127.246094" xlink:href="#DejaVuSans-48"/>
      </g>
     </g>
    </g>
    <g id="ytick_5">
     <g id="line2d_11">
      <g>
       <use style="stroke:#000000;stroke-width:0.8;" x="90" xlink:href="#md3cff7890a" y="248.354186"/>
      </g>
     </g>
     <g id="text_12">
      <!-- 200 -->
      <defs>
       <path d="M 19.1875 8.296875 
L 53.609375 8.296875 
L 53.609375 0 
L 7.328125 0 
L 7.328125 8.296875 
Q 12.9375 14.109375 22.625 23.890625 
Q 32.328125 33.6875 34.8125 36.53125 
Q 39.546875 41.84375 41.421875 45.53125 
Q 43.3125 49.21875 43.3125 52.78125 
Q 43.3125 58.59375 39.234375 62.25 
Q 35.15625 65.921875 28.609375 65.921875 
Q 23.96875 65.921875 18.8125 64.3125 
Q 13.671875 62.703125 7.8125 59.421875 
L 7.8125 69.390625 
Q 13.765625 71.78125 18.9375 73 
Q 24.125 74.21875 28.421875 74.21875 
Q 39.75 74.21875 46.484375 68.546875 
Q 53.21875 62.890625 53.21875 53.421875 
Q 53.21875 48.921875 51.53125 44.890625 
Q 49.859375 40.875 45.40625 35.40625 
Q 44.1875 33.984375 37.640625 27.21875 
Q 31.109375 20.453125 19.1875 8.296875 
z
" id="DejaVuSans-50"/>
      </defs>
      <g transform="translate(63.9125 252.153404)scale(0.1 -0.1)">
       <use xlink:href="#DejaVuSans-50"/>
       <use x="63.623047" xlink:href="#DejaVuSans-48"/>
       <use x="127.246094" xlink:href="#DejaVuSans-48"/>
      </g>
     </g>
    </g>
    <g id="ytick_6">
     <g id="line2d_12">
      <g>
       <use style="stroke:#000000;stroke-width:0.8;" x="90" xlink:href="#md3cff7890a" y="200.192732"/>
      </g>
     </g>
     <g id="text_13">
      <!-- 250 -->
      <g transform="translate(63.9125 203.991951)scale(0.1 -0.1)">
       <use xlink:href="#DejaVuSans-50"/>
       <use x="63.623047" xlink:href="#DejaVuSans-53"/>
       <use x="127.246094" xlink:href="#DejaVuSans-48"/>
      </g>
     </g>
    </g>
    <g id="ytick_7">
     <g id="line2d_13">
      <g>
       <use style="stroke:#000000;stroke-width:0.8;" x="90" xlink:href="#md3cff7890a" y="152.031279"/>
      </g>
     </g>
     <g id="text_14">
      <!-- 300 -->
      <defs>
       <path d="M 40.578125 39.3125 
Q 47.65625 37.796875 51.625 33 
Q 55.609375 28.21875 55.609375 21.1875 
Q 55.609375 10.40625 48.1875 4.484375 
Q 40.765625 -1.421875 27.09375 -1.421875 
Q 22.515625 -1.421875 17.65625 -0.515625 
Q 12.796875 0.390625 7.625 2.203125 
L 7.625 11.71875 
Q 11.71875 9.328125 16.59375 8.109375 
Q 21.484375 6.890625 26.8125 6.890625 
Q 36.078125 6.890625 40.9375 10.546875 
Q 45.796875 14.203125 45.796875 21.1875 
Q 45.796875 27.640625 41.28125 31.265625 
Q 36.765625 34.90625 28.71875 34.90625 
L 20.21875 34.90625 
L 20.21875 43.015625 
L 29.109375 43.015625 
Q 36.375 43.015625 40.234375 45.921875 
Q 44.09375 48.828125 44.09375 54.296875 
Q 44.09375 59.90625 40.109375 62.90625 
Q 36.140625 65.921875 28.71875 65.921875 
Q 24.65625 65.921875 20.015625 65.03125 
Q 15.375 64.15625 9.8125 62.3125 
L 9.8125 71.09375 
Q 15.4375 72.65625 20.34375 73.4375 
Q 25.25 74.21875 29.59375 74.21875 
Q 40.828125 74.21875 47.359375 69.109375 
Q 53.90625 64.015625 53.90625 55.328125 
Q 53.90625 49.265625 50.4375 45.09375 
Q 46.96875 40.921875 40.578125 39.3125 
z
" id="DejaVuSans-51"/>
      </defs>
      <g transform="translate(63.9125 155.830497)scale(0.1 -0.1)">
       <use xlink:href="#DejaVuSans-51"/>
       <use x="63.623047" xlink:href="#DejaVuSans-48"/>
       <use x="127.246094" xlink:href="#DejaVuSans-48"/>
      </g>
     </g>
    </g>
    <g id="ytick_8">
     <g id="line2d_14">
      <g>
       <use style="stroke:#000000;stroke-width:0.8;" x="90" xlink:href="#md3cff7890a" y="103.869825"/>
      </g>
     </g>
     <g id="text_15">
      <!-- 350 -->
      <g transform="translate(63.9125 107.669044)scale(0.1 -0.1)">
       <use xlink:href="#DejaVuSans-51"/>
       <use x="63.623047" xlink:href="#DejaVuSans-53"/>
       <use x="127.246094" xlink:href="#DejaVuSans-48"/>
      </g>
     </g>
    </g>
    <g id="text_16">
     <!-- Observed frequency -->
     <defs>
      <path d="M 37.109375 75.984375 
L 37.109375 68.5 
L 28.515625 68.5 
Q 23.6875 68.5 21.796875 66.546875 
Q 19.921875 64.59375 19.921875 59.515625 
L 19.921875 54.6875 
L 34.71875 54.6875 
L 34.71875 47.703125 
L 19.921875 47.703125 
L 19.921875 0 
L 10.890625 0 
L 10.890625 47.703125 
L 2.296875 47.703125 
L 2.296875 54.6875 
L 10.890625 54.6875 
L 10.890625 58.5 
Q 10.890625 67.625 15.140625 71.796875 
Q 19.390625 75.984375 28.609375 75.984375 
z
" id="DejaVuSans-102"/>
      <path d="M 14.796875 27.296875 
Q 14.796875 17.390625 18.875 11.75 
Q 22.953125 6.109375 30.078125 6.109375 
Q 37.203125 6.109375 41.296875 11.75 
Q 45.40625 17.390625 45.40625 27.296875 
Q 45.40625 37.203125 41.296875 42.84375 
Q 37.203125 48.484375 30.078125 48.484375 
Q 22.953125 48.484375 18.875 42.84375 
Q 14.796875 37.203125 14.796875 27.296875 
z
M 45.40625 8.203125 
Q 42.578125 3.328125 38.25 0.953125 
Q 33.9375 -1.421875 27.875 -1.421875 
Q 17.96875 -1.421875 11.734375 6.484375 
Q 5.515625 14.40625 5.515625 27.296875 
Q 5.515625 40.1875 11.734375 48.09375 
Q 17.96875 56 27.875 56 
Q 33.9375 56 38.25 53.625 
Q 42.578125 51.265625 45.40625 46.390625 
L 45.40625 54.6875 
L 54.390625 54.6875 
L 54.390625 -20.796875 
L 45.40625 -20.796875 
z
" id="DejaVuSans-113"/>
      <path d="M 54.890625 33.015625 
L 54.890625 0 
L 45.90625 0 
L 45.90625 32.71875 
Q 45.90625 40.484375 42.875 44.328125 
Q 39.84375 48.1875 33.796875 48.1875 
Q 26.515625 48.1875 22.3125 43.546875 
Q 18.109375 38.921875 18.109375 30.90625 
L 18.109375 0 
L 9.078125 0 
L 9.078125 54.6875 
L 18.109375 54.6875 
L 18.109375 46.1875 
Q 21.34375 51.125 25.703125 53.5625 
Q 30.078125 56 35.796875 56 
Q 45.21875 56 50.046875 50.171875 
Q 54.890625 44.34375 54.890625 33.015625 
z
" id="DejaVuSans-110"/>
      <path d="M 48.78125 52.59375 
L 48.78125 44.1875 
Q 44.96875 46.296875 41.140625 47.34375 
Q 37.3125 48.390625 33.40625 48.390625 
Q 24.65625 48.390625 19.8125 42.84375 
Q 14.984375 37.3125 14.984375 27.296875 
Q 14.984375 17.28125 19.8125 11.734375 
Q 24.65625 6.203125 33.40625 6.203125 
Q 37.3125 6.203125 41.140625 7.25 
Q 44.96875 8.296875 48.78125 10.40625 
L 48.78125 2.09375 
Q 45.015625 0.34375 40.984375 -0.53125 
Q 36.96875 -1.421875 32.421875 -1.421875 
Q 20.0625 -1.421875 12.78125 6.34375 
Q 5.515625 14.109375 5.515625 27.296875 
Q 5.515625 40.671875 12.859375 48.328125 
Q 20.21875 56 33.015625 56 
Q 37.15625 56 41.109375 55.140625 
Q 45.0625 54.296875 48.78125 52.59375 
z
" id="DejaVuSans-99"/>
     </defs>
     <g transform="translate(57.832812 301.573594)rotate(-90)scale(0.1 -0.1)">
      <use xlink:href="#DejaVuSans-79"/>
      <use x="78.710938" xlink:href="#DejaVuSans-98"/>
      <use x="142.1875" xlink:href="#DejaVuSans-115"/>
      <use x="194.287109" xlink:href="#DejaVuSans-101"/>
      <use x="255.810547" xlink:href="#DejaVuSans-114"/>
      <use x="296.923828" xlink:href="#DejaVuSans-118"/>
      <use x="356.103516" xlink:href="#DejaVuSans-101"/>
      <use x="417.626953" xlink:href="#DejaVuSans-100"/>
      <use x="481.103516" xlink:href="#DejaVuSans-32"/>
      <use x="512.890625" xlink:href="#DejaVuSans-102"/>
      <use x="548.095703" xlink:href="#DejaVuSans-114"/>
      <use x="589.177734" xlink:href="#DejaVuSans-101"/>
      <use x="650.701172" xlink:href="#DejaVuSans-113"/>
      <use x="714.177734" xlink:href="#DejaVuSans-117"/>
      <use x="777.556641" xlink:href="#DejaVuSans-101"/>
      <use x="839.080078" xlink:href="#DejaVuSans-110"/>
      <use x="902.458984" xlink:href="#DejaVuSans-99"/>
      <use x="957.439453" xlink:href="#DejaVuSans-121"/>
     </g>
    </g>
   </g>
   <g id="line2d_15">
    <path clip-path="url(#p7979e07f07)" d="M 454.661063 440.799149 
L 454.834818 440.704096 
L 455.182328 440.06017 
L 455.529838 438.464294 
L 456.051104 434.098323 
L 456.398614 431.298638 
L 456.572369 430.545032 
L 456.746124 430.381832 
L 456.919879 430.750526 
L 457.267389 432.017382 
L 457.441144 432.056963 
L 457.614899 431.024821 
L 457.788654 428.436131 
L 458.136165 417.215223 
L 458.65743 385.834174 
L 459.178695 352.557 
L 459.526205 342.799522 
L 459.69996 343.702911 
L 459.873715 348.382624 
L 460.39498 375.709568 
L 460.742491 390.823641 
L 460.916246 393.654506 
L 461.090001 392.626939 
L 461.263756 387.899993 
L 461.611266 370.032301 
L 462.827552 297.489276 
L 463.175062 289.172413 
L 463.522572 287.275026 
L 463.696327 286.234826 
L 463.870082 283.196589 
L 464.217592 266.598506 
L 464.738857 215.832525 
L 465.260123 166.052529 
L 465.433878 157.455361 
L 465.607633 154.484195 
L 465.781388 157.16418 
L 466.128898 176.629796 
L 467.345183 271.748537 
L 467.866449 291.769648 
L 468.387714 305.0604 
L 468.735224 309.734193 
L 468.908979 310.69806 
L 469.082734 310.900861 
L 469.256489 310.513526 
L 469.777754 308.471236 
L 469.95151 309.035506 
L 470.125265 311.260273 
L 470.472775 322.37298 
L 471.862815 390.062523 
L 472.731591 410.029954 
L 473.426611 422.154114 
L 473.774121 425.637219 
L 473.947876 426.439395 
L 474.121631 426.678349 
L 474.469142 426.407045 
L 474.642897 426.525482 
L 474.816652 427.15755 
L 475.164162 430.131811 
L 475.859182 437.783297 
L 476.206692 439.811118 
L 476.554202 440.639869 
L 476.727957 440.780443 
L 476.727957 440.780443 
" style="fill:none;stroke:#0000ff;stroke-linecap:square;stroke-width:1.5;"/>
   </g>
   <g id="line2d_16">
    <path clip-path="url(#p7979e07f07)" d="M 115.363636 440.990655 
L 131.34073 440.900928 
L 159.300644 440.521064 
L 179.272011 440.738293 
L 191.254832 440.518777 
L 203.237652 440.294237 
L 219.214746 440.247499 
L 231.197566 440.423121 
L 247.17466 440.737484 
L 259.15748 440.649938 
L 275.134574 440.325333 
L 283.123121 439.990795 
L 295.105941 439.400355 
L 299.100215 439.334641 
L 307.088762 439.526889 
L 319.071582 440.058824 
L 323.065855 440.076708 
L 327.060129 439.955003 
L 331.054402 439.693248 
L 339.042949 438.834484 
L 347.031496 437.696351 
L 363.00859 435.254901 
L 370.997137 434.389286 
L 378.985684 433.568097 
L 394.962777 431.535571 
L 398.957051 431.414409 
L 402.951324 431.572921 
L 414.934145 432.709281 
L 418.928418 432.805681 
L 422.922691 432.586819 
L 426.916965 432.056208 
L 434.905512 430.411721 
L 438.899785 429.556853 
L 442.894059 428.840409 
L 446.888332 428.333916 
L 450.882606 428.058034 
L 454.876879 427.990629 
L 458.871152 428.08621 
L 466.859699 428.593897 
L 474.848246 429.36507 
L 490.82534 431.020105 
L 498.813887 431.788375 
L 506.802434 432.776085 
L 522.779528 435.012901 
L 554.733715 438.80419 
L 558.727989 439.078793 
L 566.716535 439.275365 
L 578.699356 439.282744 
L 586.687903 439.622847 
L 602.664996 440.645269 
L 610.653543 440.89036 
L 622.636364 440.987894 
L 622.636364 440.987894 
" style="fill:none;stroke:#ffa500;stroke-linecap:square;stroke-width:1.5;"/>
   </g>
   <g id="patch_76">
    <path d="M 90 441 
L 90 60.48 
" style="fill:none;stroke:#000000;stroke-linecap:square;stroke-linejoin:miter;stroke-width:0.8;"/>
   </g>
   <g id="patch_77">
    <path d="M 648 441 
L 648 60.48 
" style="fill:none;stroke:#000000;stroke-linecap:square;stroke-linejoin:miter;stroke-width:0.8;"/>
   </g>
   <g id="patch_78">
    <path d="M 90 441 
L 648 441 
" style="fill:none;stroke:#000000;stroke-linecap:square;stroke-linejoin:miter;stroke-width:0.8;"/>
   </g>
   <g id="patch_79">
    <path d="M 90 60.48 
L 648 60.48 
" style="fill:none;stroke:#000000;stroke-linecap:square;stroke-linejoin:miter;stroke-width:0.8;"/>
   </g>
   <g id="legend_1">
    <g id="patch_80">
     <path d="M 522.403125 97.83625 
L 641 97.83625 
Q 643 97.83625 643 95.83625 
L 643 67.48 
Q 643 65.48 641 65.48 
L 522.403125 65.48 
Q 520.403125 65.48 520.403125 67.48 
L 520.403125 95.83625 
Q 520.403125 97.83625 522.403125 97.83625 
z
" style="fill:#ffffff;opacity:0.8;stroke:#cccccc;stroke-linejoin:miter;"/>
    </g>
    <g id="patch_81">
     <path d="M 524.403125 77.078438 
L 544.403125 77.078438 
L 544.403125 70.078438 
L 524.403125 70.078438 
z
" style="fill:#0000ff;opacity:0.4;"/>
    </g>
    <g id="text_17">
     <!-- 14,000 examples -->
     <defs>
      <path d="M 37.796875 64.3125 
L 12.890625 25.390625 
L 37.796875 25.390625 
z
M 35.203125 72.90625 
L 47.609375 72.90625 
L 47.609375 25.390625 
L 58.015625 25.390625 
L 58.015625 17.1875 
L 47.609375 17.1875 
L 47.609375 0 
L 37.796875 0 
L 37.796875 17.1875 
L 4.890625 17.1875 
L 4.890625 26.703125 
z
" id="DejaVuSans-52"/>
      <path d="M 11.71875 12.40625 
L 22.015625 12.40625 
L 22.015625 4 
L 14.015625 -11.625 
L 7.71875 -11.625 
L 11.71875 4 
z
" id="DejaVuSans-44"/>
      <path d="M 54.890625 54.6875 
L 35.109375 28.078125 
L 55.90625 0 
L 45.3125 0 
L 29.390625 21.484375 
L 13.484375 0 
L 2.875 0 
L 24.125 28.609375 
L 4.6875 54.6875 
L 15.28125 54.6875 
L 29.78125 35.203125 
L 44.28125 54.6875 
z
" id="DejaVuSans-120"/>
      <path d="M 52 44.1875 
Q 55.375 50.25 60.0625 53.125 
Q 64.75 56 71.09375 56 
Q 79.640625 56 84.28125 50.015625 
Q 88.921875 44.046875 88.921875 33.015625 
L 88.921875 0 
L 79.890625 0 
L 79.890625 32.71875 
Q 79.890625 40.578125 77.09375 44.375 
Q 74.3125 48.1875 68.609375 48.1875 
Q 61.625 48.1875 57.5625 43.546875 
Q 53.515625 38.921875 53.515625 30.90625 
L 53.515625 0 
L 44.484375 0 
L 44.484375 32.71875 
Q 44.484375 40.625 41.703125 44.40625 
Q 38.921875 48.1875 33.109375 48.1875 
Q 26.21875 48.1875 22.15625 43.53125 
Q 18.109375 38.875 18.109375 30.90625 
L 18.109375 0 
L 9.078125 0 
L 9.078125 54.6875 
L 18.109375 54.6875 
L 18.109375 46.1875 
Q 21.1875 51.21875 25.484375 53.609375 
Q 29.78125 56 35.6875 56 
Q 41.65625 56 45.828125 52.96875 
Q 50 49.953125 52 44.1875 
z
" id="DejaVuSans-109"/>
     </defs>
     <g transform="translate(552.403125 77.078438)scale(0.1 -0.1)">
      <use xlink:href="#DejaVuSans-49"/>
      <use x="63.623047" xlink:href="#DejaVuSans-52"/>
      <use x="127.246094" xlink:href="#DejaVuSans-44"/>
      <use x="159.033203" xlink:href="#DejaVuSans-48"/>
      <use x="222.65625" xlink:href="#DejaVuSans-48"/>
      <use x="286.279297" xlink:href="#DejaVuSans-48"/>
      <use x="349.902344" xlink:href="#DejaVuSans-32"/>
      <use x="381.689453" xlink:href="#DejaVuSans-101"/>
      <use x="443.197266" xlink:href="#DejaVuSans-120"/>
      <use x="502.376953" xlink:href="#DejaVuSans-97"/>
      <use x="563.65625" xlink:href="#DejaVuSans-109"/>
      <use x="661.068359" xlink:href="#DejaVuSans-112"/>
      <use x="724.544922" xlink:href="#DejaVuSans-108"/>
      <use x="752.328125" xlink:href="#DejaVuSans-101"/>
      <use x="813.851562" xlink:href="#DejaVuSans-115"/>
     </g>
    </g>
    <g id="patch_82">
     <path d="M 524.403125 91.756563 
L 544.403125 91.756563 
L 544.403125 84.756563 
L 524.403125 84.756563 
z
" style="fill:#ffa500;opacity:0.4;"/>
    </g>
    <g id="text_18">
     <!-- 100 examples -->
     <g transform="translate(552.403125 91.756563)scale(0.1 -0.1)">
      <use xlink:href="#DejaVuSans-49"/>
      <use x="63.623047" xlink:href="#DejaVuSans-48"/>
      <use x="127.246094" xlink:href="#DejaVuSans-48"/>
      <use x="190.869141" xlink:href="#DejaVuSans-32"/>
      <use x="222.65625" xlink:href="#DejaVuSans-101"/>
      <use x="284.164062" xlink:href="#DejaVuSans-120"/>
      <use x="343.34375" xlink:href="#DejaVuSans-97"/>
      <use x="404.623047" xlink:href="#DejaVuSans-109"/>
      <use x="502.035156" xlink:href="#DejaVuSans-112"/>
      <use x="565.511719" xlink:href="#DejaVuSans-108"/>
      <use x="593.294922" xlink:href="#DejaVuSans-101"/>
      <use x="654.818359" xlink:href="#DejaVuSans-115"/>
     </g>
    </g>
   </g>
  </g>
 </g>
 <defs>
  <clipPath id="p7979e07f07">
   <rect height="380.52" width="558" x="90" y="60.48"/>
  </clipPath>
 </defs>
</svg>
